<?xml version="1.0" encoding="iso-8859-1"?>
<!-- Generator: Adobe Illustrator 16.0.0, SVG Export Plug-In . SVG Version: 6.00 Build 0)  -->
<!DOCTYPE svg PUBLIC "-//W3C//DTD SVG 1.1//EN" "http://www.w3.org/Graphics/SVG/1.1/DTD/svg11.dtd">
<svg version="1.1" id="Layer_1" xmlns="http://www.w3.org/2000/svg" xmlns:xlink="http://www.w3.org/1999/xlink" x="0px" y="0px"
	 width="378.166px" height="388.667px" viewBox="0 0 378.166 388.667" enable-background="new 0 0 378.166 388.667"
	 xml:space="preserve">
<circle id="circle_1_" fill="#F3F3F3" cx="183.952" cy="191.967" r="168.105"/>
<g>
	<path fill="#191919" d="M131.594,174.681h10.451c4.978,0,8.665-1.244,11.063-3.733c2.397-2.488,3.597-5.792,3.597-9.909
		c0-3.981-1.188-7.081-3.562-9.298c-2.376-2.216-5.646-3.326-9.808-3.326c-3.756,0-6.9,1.03-9.435,3.088
		c-2.534,2.059-3.801,4.74-3.801,8.042h-19.614c0-5.158,1.392-9.784,4.174-13.879c2.783-4.095,6.674-7.296,11.674-9.604
		c4.999-2.308,10.509-3.461,16.526-3.461c10.453,0,18.642,2.5,24.57,7.5c5.927,5,8.891,11.889,8.891,20.667
		c0,4.525-1.381,8.688-4.141,12.488s-6.379,6.719-10.859,8.755c5.566,1.992,9.717,4.978,12.455,8.959
		c2.737,3.981,4.105,8.688,4.105,14.117c0,8.778-3.201,15.813-9.604,21.107c-6.403,5.294-14.875,7.941-25.418,7.941
		c-9.864,0-17.929-2.602-24.195-7.806c-6.268-5.202-9.4-12.081-9.4-20.633h19.615c0,3.71,1.391,6.743,4.174,9.095
		c2.782,2.354,6.21,3.529,10.282,3.529c4.66,0,8.314-1.232,10.961-3.699c2.647-2.465,3.971-5.734,3.971-9.807
		c0-9.864-5.43-14.797-16.289-14.797h-10.384V174.681z"/>
	<path fill="#191919" d="M220.165,181.265l12.354-21.922h20.971l-20.904,35.972l21.787,37.465h-21.039l-13.1-23.076l-13.031,23.076
		h-21.107l21.785-37.465l-20.836-35.972h21.041L220.165,181.265z"/>
</g>
</svg>
