<?xml version="1.0" encoding="iso-8859-1"?>
<!-- Generator: Adobe Illustrator 16.0.0, SVG Export Plug-In . SVG Version: 6.00 Build 0)  -->
<!DOCTYPE svg PUBLIC "-//W3C//DTD SVG 1.1//EN" "http://www.w3.org/Graphics/SVG/1.1/DTD/svg11.dtd">
<svg version="1.1" id="Layer_1" xmlns="http://www.w3.org/2000/svg" xmlns:xlink="http://www.w3.org/1999/xlink" x="0px" y="0px"
	 width="431.25px" height="384.747px" viewBox="0 0 431.25 384.747" enable-background="new 0 0 431.25 384.747"
	 xml:space="preserve">
<path id="circle_4_" fill="#8F191C" d="M391.936,192.371c0,97.377-78.938,176.314-176.311,176.314
	c-97.375,0-176.312-78.938-176.312-176.314c0-97.372,78.938-176.31,176.312-176.31C312.998,16.061,391.936,94.999,391.936,192.371z"
	/>
<g>
	<path fill="#F3F3F3" d="M113.229,196.57l5.279-46.508h51.285v15.147h-36.389l-2.264,19.672c4.314-2.305,8.902-3.457,13.764-3.457
		c8.715,0,15.545,2.703,20.49,8.107c4.943,5.406,7.416,12.969,7.416,22.689c0,5.908-1.248,11.197-3.74,15.869
		s-6.064,8.295-10.715,10.873c-4.652,2.576-10.141,3.865-16.467,3.865c-5.531,0-10.664-1.121-15.398-3.363
		c-4.736-2.24-8.475-5.395-11.219-9.459c-2.744-4.062-4.201-8.693-4.367-13.889h17.975c0.377,3.812,1.707,6.777,3.99,8.893
		c2.283,2.117,5.27,3.174,8.957,3.174c4.105,0,7.268-1.477,9.49-4.43c2.219-2.955,3.33-7.135,3.33-12.539
		c0-5.195-1.279-9.176-3.834-11.941c-2.557-2.766-6.18-4.148-10.873-4.148c-4.316,0-7.814,1.131-10.496,3.395l-1.76,1.633
		L113.229,196.57z"/>
	<path fill="#F3F3F3" d="M202.852,187.771h9.68c4.607,0,8.021-1.152,10.244-3.457c2.221-2.303,3.33-5.361,3.33-9.176
		c0-3.686-1.1-6.557-3.299-8.609s-5.229-3.08-9.082-3.08c-3.479,0-6.391,0.953-8.736,2.859c-2.348,1.906-3.52,4.391-3.52,7.447
		h-18.164c0-4.775,1.289-9.061,3.865-12.852c2.578-3.793,6.182-6.758,10.811-8.895c4.629-2.136,9.73-3.205,15.305-3.205
		c9.678,0,17.262,2.316,22.752,6.945c5.488,4.631,8.232,11.01,8.232,19.137c0,4.191-1.279,8.045-3.834,11.564
		c-2.557,3.52-5.908,6.223-10.057,8.107c5.154,1.846,8.998,4.611,11.533,8.297c2.535,3.688,3.803,8.045,3.803,13.072
		c0,8.129-2.965,14.645-8.893,19.547c-5.93,4.902-13.775,7.354-23.537,7.354c-9.135,0-16.604-2.41-22.406-7.229
		c-5.805-4.816-8.705-11.188-8.705-19.105h18.164c0,3.436,1.289,6.244,3.865,8.422c2.576,2.18,5.75,3.268,9.521,3.268
		c4.314,0,7.699-1.141,10.15-3.426c2.451-2.283,3.676-5.311,3.676-9.08c0-9.135-5.027-13.701-15.084-13.701h-9.615V187.771z"/>
	<path fill="#F3F3F3" d="M257.971,167.66c0-5.615,1.822-10.172,5.467-13.67c3.646-3.498,8.422-5.248,14.33-5.248
		c5.992,0,10.811,1.728,14.455,5.185c3.646,3.457,5.469,8.139,5.469,14.047v4.525c0,5.656-1.822,10.203-5.469,13.636
		c-3.645,3.438-8.422,5.154-14.33,5.154c-5.949,0-10.758-1.729-14.424-5.186c-3.666-3.455-5.498-8.117-5.498-13.982V167.66z
		 M270.037,172.576c0,2.529,0.723,4.562,2.168,6.102c1.445,1.537,3.342,2.307,5.688,2.307c2.348,0,4.211-0.779,5.594-2.34
		c1.383-1.559,2.074-3.645,2.074-6.258v-4.678c0-2.527-0.691-4.572-2.074-6.131c-1.383-1.561-3.289-2.34-5.719-2.34
		c-2.305,0-4.17,0.77-5.594,2.307c-1.424,1.539-2.137,3.678-2.137,6.416V172.576z M281.477,234.72l-8.863-4.777l44.688-71.521
		l8.861,4.775L281.477,234.72z M301.713,219.132c0-5.656,1.844-10.213,5.531-13.67c3.686-3.455,8.463-5.184,14.33-5.184
		c5.949,0,10.756,1.707,14.424,5.121c3.666,3.416,5.498,8.119,5.498,14.109v4.525c0,5.615-1.801,10.15-5.404,13.607
		s-8.4,5.186-14.393,5.186c-6.033,0-10.873-1.738-14.518-5.217c-3.646-3.477-5.469-8.086-5.469-13.826V219.132z M313.781,224.113
		c0,2.318,0.754,4.299,2.262,5.941c1.508,1.645,3.395,2.465,5.656,2.465c5.111,0,7.668-2.844,7.668-8.533v-4.805
		c0-2.527-0.713-4.561-2.137-6.1c-1.426-1.537-3.311-2.307-5.656-2.307c-2.348,0-4.232,0.77-5.656,2.307
		c-1.426,1.539-2.137,3.635-2.137,6.291V224.113z"/>
</g>
</svg>
