<?xml version="1.0" encoding="iso-8859-1"?>
<!-- Generator: Adobe Illustrator 16.0.0, SVG Export Plug-In . SVG Version: 6.00 Build 0)  -->
<!DOCTYPE svg PUBLIC "-//W3C//DTD SVG 1.1//EN" "http://www.w3.org/Graphics/SVG/1.1/DTD/svg11.dtd">
<svg version="1.1" id="Layer_1" xmlns="http://www.w3.org/2000/svg" xmlns:xlink="http://www.w3.org/1999/xlink" x="0px" y="0px"
	 width="389.583px" height="400.401px" viewBox="0 0 389.583 400.401" enable-background="new 0 0 389.583 400.401"
	 xml:space="preserve">
<circle id="circle_2_" fill="#F9F9FA" cx="194.792" cy="191.966" r="176.312"/>
<g>
	<path fill="#191919" d="M150.248,173.979c0,4.441-1.111,8.38-3.331,11.815c-2.221,3.436-5.279,6.181-9.176,8.233
		c4.44,2.137,7.96,5.081,10.559,8.83c2.597,3.75,3.896,8.16,3.896,13.23c0,8.129-2.765,14.549-8.296,19.264
		c-5.531,4.713-13.052,7.07-22.563,7.07c-9.512,0-17.054-2.367-22.626-7.102c-5.573-4.734-8.359-11.146-8.359-19.232
		c0-5.07,1.298-9.49,3.896-13.262c2.598-3.771,6.097-6.703,10.496-8.798c-3.897-2.053-6.945-4.798-9.145-8.233
		s-3.3-7.374-3.3-11.815c0-7.794,2.598-14.005,7.793-18.636c5.195-4.629,12.255-6.944,21.18-6.944
		c8.882,0,15.932,2.294,21.149,6.882C147.639,159.869,150.248,166.102,150.248,173.979z M133.97,214.768
		c0-3.98-1.153-7.164-3.457-9.553c-2.305-2.389-5.405-3.582-9.302-3.582c-3.855,0-6.935,1.184-9.239,3.551
		c-2.305,2.367-3.457,5.562-3.457,9.584c0,3.896,1.131,7.039,3.394,9.428c2.263,2.389,5.405,3.582,9.428,3.582
		c3.938,0,7.028-1.152,9.27-3.457C132.848,222.018,133.97,218.832,133.97,214.768z M132.084,174.859
		c0-3.562-0.943-6.421-2.828-8.579c-1.886-2.158-4.547-3.237-7.982-3.237c-3.394,0-6.034,1.048-7.919,3.143
		c-1.886,2.096-2.828,4.987-2.828,8.674c0,3.645,0.942,6.578,2.828,8.799c1.885,2.221,4.546,3.331,7.982,3.331
		c3.435,0,6.085-1.11,7.95-3.331C131.151,181.437,132.084,178.503,132.084,174.859z"/>
	<path fill="#191919" d="M218.188,206.723h10.37v14.645h-10.37v19.797h-18.164v-19.797h-37.521l-0.817-11.439l38.15-60.272h18.352
		V206.723z M179.787,206.723h20.238v-32.304l-1.194,2.074L179.787,206.723z"/>
	<path fill="#191919" d="M238.048,167.253c0-5.614,1.823-10.171,5.468-13.67c3.646-3.497,8.422-5.247,14.33-5.247
		c5.992,0,10.81,1.728,14.456,5.185c3.645,3.457,5.468,8.139,5.468,14.047v4.525c0,5.656-1.823,10.203-5.468,13.638
		c-3.646,3.437-8.422,5.154-14.33,5.154c-5.95,0-10.758-1.729-14.424-5.186c-3.667-3.456-5.5-8.117-5.5-13.983V167.253z
		 M250.115,172.17c0,2.529,0.723,4.562,2.168,6.101c1.446,1.538,3.341,2.307,5.688,2.307c2.346,0,4.211-0.779,5.593-2.339
		c1.383-1.56,2.074-3.646,2.074-6.259v-4.677c0-2.528-0.691-4.572-2.074-6.132c-1.382-1.56-3.29-2.34-5.719-2.34
		c-2.305,0-4.169,0.771-5.593,2.308c-1.425,1.538-2.137,3.677-2.137,6.416V172.17z M261.554,234.314l-8.862-4.777l44.686-71.522
		l8.862,4.776L261.554,234.314z M281.792,218.727c0-5.656,1.843-10.213,5.531-13.67c3.687-3.455,8.463-5.184,14.33-5.184
		c5.949,0,10.757,1.708,14.424,5.122c3.666,3.416,5.5,8.119,5.5,14.109v4.525c0,5.615-1.802,10.15-5.405,13.607
		c-3.604,3.457-8.401,5.186-14.392,5.186c-6.034,0-10.873-1.738-14.519-5.217c-3.645-3.477-5.468-8.086-5.468-13.826V218.727z
		 M293.858,223.707c0,2.318,0.754,4.299,2.263,5.941c1.508,1.645,3.394,2.465,5.657,2.465c5.111,0,7.667-2.844,7.667-8.533v-4.805
		c0-2.527-0.713-4.561-2.137-6.1c-1.425-1.537-3.311-2.307-5.657-2.307c-2.347,0-4.232,0.77-5.656,2.307
		c-1.425,1.539-2.137,3.635-2.137,6.291V223.707z"/>
</g>
</svg>
