<?xml version="1.0" encoding="iso-8859-1"?>
<!-- Generator: Adobe Illustrator 16.0.0, SVG Export Plug-In . SVG Version: 6.00 Build 0)  -->
<!DOCTYPE svg PUBLIC "-//W3C//DTD SVG 1.1//EN" "http://www.w3.org/Graphics/SVG/1.1/DTD/svg11.dtd">
<svg version="1.1" xmlns="http://www.w3.org/2000/svg" xmlns:xlink="http://www.w3.org/1999/xlink" x="0px" y="0px"
	 width="215.666px" height="228.25px" viewBox="0 0 215.666 228.25" enable-background="new 0 0 215.666 228.25"
	 xml:space="preserve">
<g id="cbc">
	<circle id="circle" fill="#EA2431" cx="99.891" cy="108.352" r="35.498"/>
	<path id="top-1" fill="#EA2431" d="M99.293,36.927c34.984,0,35.585,34.216,35.585,34.216H99.293h1.54H65.249
		c0,0,0.601-34.216,35.585-34.216"/>
	<path id="top-2" fill="#EA2431" d="M99.122,15.655c29.767,0,29.255,16.141,29.255,16.141H99.122h0.941H70.809
		c0,0-0.511-16.141,29.255-16.141"/>
	<path id="top-3" fill="#EA2431" d="M59.688,71.143H27.612c0,0,0.812-31.843,32.077-32.505
		C59.688,59.167,59.688,71.143,59.688,71.143z"/>
	<path id="top-4" fill="#EA2431" d="M141.693,71.741h32.077c0,0-0.812-31.842-32.077-32.505
		C141.693,59.765,141.693,71.741,141.693,71.741z"/>
	<path id="bot-1" fill="#EA2431" d="M99.293,182.882c34.984,0,35.585-34.216,35.585-34.216H99.293h1.54H65.249
		c0,0,0.601,34.216,35.585,34.216"/>
	<path id="bot-2" fill="#EA2431" d="M99.122,204.154c29.767,0,29.255-16.14,29.255-16.14H99.122h0.941H70.809
		c0,0-0.511,16.14,29.255,16.14"/>
	<path id="bot-3" fill="#EA2431" d="M59.688,148.667H27.612c0,0,0.812,31.843,32.077,32.505
		C59.688,160.642,59.688,148.667,59.688,148.667z"/>
	<path id="bot-4" fill="#EA2431" d="M140.838,148.41h32.077c0,0-0.812,31.842-32.077,32.505
		C140.838,160.385,140.838,148.41,140.838,148.41z"/>
	<path id="left-1" fill="#EA2431" d="M26.272,107.21c0,34.984,34.215,35.585,34.215,35.585V107.21v1.539V73.166
		c0,0-34.215,0.601-34.215,35.584"/>
	<path id="left-2" fill="#EA2431" d="M5,107.039c0,29.767,16.14,29.255,16.14,29.255v-29.255v0.941V78.725
		c0,0-16.14-0.512-16.14,29.255"/>
	<path id="right-1" fill="#EA2431" d="M175.109,107.809c0,34.983-34.215,35.584-34.215,35.584v-35.584v1.538V73.763
		c0,0,34.215,0.601,34.215,35.584"/>
	<path id="right-2" fill="#EA2431" d="M196.382,107.637c0,29.766-16.14,29.255-16.14,29.255v-29.255v0.941V79.323
		c0,0,16.14-0.511,16.14,29.256"/>
</g>
<g id="canada">
</g>
</svg>
