<?xml version="1.0" encoding="iso-8859-1"?>
<!-- Generator: Adobe Illustrator 16.0.0, SVG Export Plug-In . SVG Version: 6.00 Build 0)  -->
<!DOCTYPE svg PUBLIC "-//W3C//DTD SVG 1.1//EN" "http://www.w3.org/Graphics/SVG/1.1/DTD/svg11.dtd">
<svg version="1.1" id="Layer_1" xmlns="http://www.w3.org/2000/svg" xmlns:xlink="http://www.w3.org/1999/xlink" x="0px" y="0px"
	 width="974px" height="163.665px" viewBox="0 0 974 163.665" enable-background="new 0 0 974 163.665" xml:space="preserve">
<path id="red-girl" fill="#8F191C" d="M51.842,29.578c9.327,0.913,13,4.518,17.721,9.036c4.72,4.518,8.403,31.287,8.569,35.5
	c0.165,4.213-9.578,5.447-14.586,6.049c-1.353,6,3.92,6.325,3.92,6.325s4.812,0.964,12.101,2.446
	c7.29,1.484,11.373,9.148,12.342,11.484c0.971,2.335,0.897,7.248,0.868,11.666c-0.029,4.418-4.909,5.275-4.909,5.275H51.842h-0.088
	H15.727c0,0-4.88-0.857-4.909-5.275c-0.029-4.418-0.102-9.331,0.867-11.666c0.971-2.336,5.053-10,12.342-11.484
	c7.29-1.482,12.103-2.446,12.103-2.446s5.274-0.325,3.919-6.325c-5.007-0.602-14.75-1.836-14.585-6.049
	c0.167-4.213,3.851-30.982,8.57-35.5c4.721-4.519,8.394-8.123,17.721-9.036"/>
<path id="girl-1" fill="#FFFFFF" stroke="#010101" stroke-miterlimit="10" d="M151.219,29.578
	c9.328,0.913,13.001,4.518,17.721,9.036c4.72,4.518,8.404,31.287,8.57,35.5c0.165,4.213-9.578,5.447-14.586,6.049
	c-1.353,6,3.921,6.325,3.921,6.325s4.811,0.964,12.101,2.446c7.29,1.484,11.374,9.148,12.343,11.484
	c0.97,2.335,0.896,7.248,0.867,11.666c-0.028,4.418-4.909,5.275-4.909,5.275h-36.027h-0.088h-36.027c0,0-4.88-0.857-4.91-5.275
	c-0.028-4.418-0.103-9.331,0.867-11.666c0.97-2.336,5.053-10,12.343-11.484c7.29-1.482,12.101-2.446,12.101-2.446
	s5.274-0.325,3.92-6.325c-5.007-0.602-14.751-1.836-14.585-6.049c0.165-4.213,3.85-30.982,8.569-35.5
	c4.721-4.519,8.394-8.123,17.721-9.036"/>
<path id="girl-2" fill="#FFFFFF" stroke="#010101" stroke-miterlimit="10" d="M245.076,29.578c9.326,0.913,13,4.518,17.72,9.036
	c4.721,4.518,8.404,31.287,8.569,35.5c0.166,4.213-9.578,5.447-14.585,6.049c-1.353,6,3.919,6.325,3.919,6.325
	s4.812,0.964,12.103,2.446c7.29,1.484,11.372,9.148,12.342,11.484c0.97,2.335,0.896,7.248,0.868,11.666
	c-0.029,4.418-4.91,5.275-4.91,5.275h-36.027h-0.087h-36.029c0,0-4.88-0.857-4.908-5.275c-0.03-4.418-0.103-9.331,0.867-11.666
	c0.97-2.336,5.053-10,12.342-11.484c7.29-1.482,12.102-2.446,12.102-2.446s5.274-0.325,3.92-6.325
	c-5.008-0.602-14.75-1.836-14.585-6.049c0.165-4.213,3.849-30.982,8.568-35.5c4.721-4.519,8.394-8.123,17.722-9.036"/>
<path id="girl-3" fill="#FFFFFF" stroke="#010101" stroke-miterlimit="10" d="M338.987,29.578c9.328,0.913,13.001,4.518,17.72,9.036
	c4.721,4.518,8.405,31.287,8.57,35.5c0.166,4.213-9.577,5.447-14.585,6.049c-1.353,6,3.921,6.325,3.921,6.325
	s4.811,0.964,12.101,2.446c7.29,1.484,11.373,9.148,12.343,11.484c0.97,2.335,0.896,7.248,0.867,11.666
	c-0.028,4.418-4.91,5.275-4.91,5.275h-36.026h-0.088h-36.027c0,0-4.88-0.857-4.91-5.275c-0.028-4.418-0.103-9.331,0.867-11.666
	c0.97-2.336,5.053-10,12.343-11.484c7.29-1.482,12.101-2.446,12.101-2.446s5.273-0.325,3.92-6.325
	c-5.007-0.602-14.751-1.836-14.585-6.049c0.165-4.213,3.849-30.982,8.569-35.5c4.72-4.519,8.394-8.123,17.721-9.036"/>
<path id="girl-4" fill="#FFFFFF" stroke="#010101" stroke-miterlimit="10" d="M431.615,29.578c9.326,0.913,13,4.518,17.72,9.036
	c4.72,4.518,8.403,31.287,8.57,35.5c0.164,4.213-9.579,5.447-14.585,6.049c-1.354,6,3.919,6.325,3.919,6.325
	s4.813,0.964,12.103,2.446c7.29,1.484,11.372,9.148,12.341,11.484c0.971,2.335,0.896,7.248,0.868,11.666
	c-0.027,4.418-4.908,5.275-4.908,5.275h-36.027h-0.088h-36.028c0,0-4.88-0.857-4.909-5.275c-0.029-4.418-0.102-9.331,0.868-11.666
	c0.969-2.336,5.052-10,12.342-11.484c7.29-1.482,12.101-2.446,12.101-2.446s5.274-0.325,3.921-6.325
	c-5.008-0.602-14.75-1.836-14.586-6.049c0.167-4.213,3.851-30.982,8.57-35.5c4.721-4.519,8.394-8.123,17.722-9.036"/>
<path id="girl-5" fill="#FFFFFF" stroke="#010101" stroke-miterlimit="10" d="M529.257,29.578c9.327,0.913,13,4.518,17.72,9.036
	c4.721,4.518,8.405,31.287,8.569,35.5c0.166,4.213-9.576,5.447-14.585,6.049c-1.353,6,3.921,6.325,3.921,6.325
	s4.811,0.964,12.101,2.446c7.292,1.484,11.374,9.148,12.344,11.484c0.97,2.335,0.896,7.248,0.866,11.666
	c-0.027,4.418-4.909,5.275-4.909,5.275h-36.026h-0.088h-36.027c0,0-4.88-0.857-4.91-5.275c-0.028-4.418-0.103-9.331,0.867-11.666
	c0.969-2.336,5.054-10,12.344-11.484c7.29-1.482,12.103-2.446,12.103-2.446s5.271-0.325,3.919-6.325
	c-5.007-0.602-14.751-1.836-14.585-6.049c0.165-4.213,3.849-30.982,8.569-35.5c4.72-4.519,8.393-8.123,17.721-9.036"/>
<path id="girl-6" fill="#FFFFFF" stroke="#010101" stroke-miterlimit="10" d="M628.634,29.578
	c9.328,0.913,13.001,4.518,17.721,9.036c4.721,4.518,8.403,31.287,8.569,35.5c0.164,4.213-9.576,5.447-14.585,6.049
	c-1.353,6,3.921,6.325,3.921,6.325s4.811,0.964,12.101,2.446c7.29,1.484,11.372,9.148,12.342,11.484
	c0.971,2.335,0.896,7.248,0.868,11.666s-4.909,5.275-4.909,5.275h-36.027h-0.088H592.52c0,0-4.882-0.857-4.909-5.275
	c-0.03-4.418-0.104-9.331,0.866-11.666c0.97-2.336,5.054-10,12.342-11.484c7.292-1.482,12.103-2.446,12.103-2.446
	s5.273-0.325,3.921-6.325c-5.009-0.602-14.751-1.836-14.585-6.049c0.164-4.213,3.849-30.982,8.567-35.5
	c4.722-4.519,8.395-8.123,17.722-9.036"/>
<path id="girl-7" fill="#FFFFFF" stroke="#010101" stroke-miterlimit="10" d="M728.012,29.578c9.326,0.913,13.001,4.518,17.72,9.036
	c4.722,4.518,8.403,31.287,8.57,35.5c0.164,4.213-9.579,5.447-14.586,6.049c-1.353,6,3.92,6.325,3.92,6.325
	s4.811,0.964,12.103,2.446c7.289,1.484,11.372,9.148,12.341,11.484c0.972,2.335,0.897,7.248,0.869,11.666
	c-0.03,4.418-4.91,5.275-4.91,5.275h-36.026h-0.088h-36.028c0,0-4.88-0.857-4.907-5.275c-0.03-4.418-0.104-9.331,0.866-11.666
	c0.97-2.336,5.052-10,12.342-11.484c7.29-1.482,12.103-2.446,12.103-2.446s5.273-0.325,3.919-6.325
	c-5.007-0.602-14.749-1.836-14.585-6.049c0.166-4.213,3.851-30.982,8.569-35.5c4.721-4.519,8.394-8.123,17.722-9.036"/>
<path id="girl-8" fill="#FFFFFF" stroke="#010101" stroke-miterlimit="10" d="M821.868,29.578c9.328,0.913,13.001,4.518,17.72,9.036
	c4.721,4.518,8.404,31.287,8.568,35.5c0.168,4.213-9.576,5.447-14.584,6.049c-1.353,6,3.922,6.325,3.922,6.325
	s4.811,0.964,12.1,2.446c7.291,1.484,11.373,9.148,12.344,11.484c0.969,2.335,0.896,7.248,0.867,11.666s-4.91,5.275-4.91,5.275
	h-36.027h-0.088h-36.026c0,0-4.88-0.857-4.91-5.275c-0.027-4.418-0.103-9.331,0.867-11.666c0.97-2.336,5.054-10,12.343-11.484
	c7.29-1.482,12.103-2.446,12.103-2.446s5.272-0.325,3.92-6.325c-5.007-0.602-14.752-1.836-14.585-6.049
	c0.164-4.213,3.849-30.982,8.569-35.5c4.719-4.519,8.394-8.123,17.72-9.036"/>
<path id="girl-9" fill="#FFFFFF" stroke="#010101" stroke-miterlimit="10" d="M921.246,29.578c9.328,0.913,13,4.518,17.719,9.036
	c4.721,4.518,8.404,31.287,8.57,35.5c0.164,4.213-9.576,5.447-14.586,6.049c-1.352,6,3.922,6.325,3.922,6.325
	s4.811,0.964,12.1,2.446c7.291,1.484,11.373,9.148,12.342,11.484c0.973,2.335,0.896,7.248,0.869,11.666s-4.91,5.275-4.91,5.275
	h-36.025h-0.088h-36.027c0,0-4.881-0.857-4.91-5.275c-0.027-4.418-0.102-9.331,0.867-11.666c0.971-2.336,5.055-10,12.342-11.484
	c7.291-1.482,12.102-2.446,12.102-2.446s5.275-0.325,3.922-6.325c-5.008-0.602-14.752-1.836-14.586-6.049s3.85-30.982,8.568-35.5
	c4.721-4.519,8.395-8.123,17.723-9.036"/>
</svg>
