<?xml version="1.0" encoding="utf-8"?>
<!-- Generator: Adobe Illustrator 16.0.0, SVG Export Plug-In . SVG Version: 6.00 Build 0)  -->
<!DOCTYPE svg PUBLIC "-//W3C//DTD SVG 1.1//EN" "http://www.w3.org/Graphics/SVG/1.1/DTD/svg11.dtd">
<svg version="1.1" class="data-ref" id="leaf" xmlns="http://www.w3.org/2000/svg" xmlns:xlink="http://www.w3.org/1999/xlink" x="0px" y="0px"
	 width="150.164px" height="148.664px" viewBox="0 0 150.164 148.664" enable-background="new 0 0 150.164 148.664"
	 xml:space="preserve">
<g id="leafCir">
	<circle fill="#8F0000" cx="75.411" cy="74.41" r="70.152"/>
	<path fill="#FFFFFF" d="M108.572,62.487c2.156-10.778,2.18-19.308,2.18-19.666c0-0.527-0.208-1.032-0.582-1.405
		c-0.372-0.372-0.877-0.582-1.404-0.582c-0.357,0-8.888,0.025-19.666,2.181c-3.839,0.768-7.477,1.712-10.883,2.821
		c-0.021,0.007-0.045,0.015-0.068,0.022c-2.203,0.72-4.312,1.508-6.308,2.364c-2.443,1.047-4.726,2.196-6.842,3.44
		c-0.064,0.034-0.126,0.071-0.187,0.112c-3.396,2.017-6.359,4.281-8.854,6.775c-4.952,4.952-7.679,11.535-7.679,18.538
		c0,6.337,2.233,12.33,6.327,17.082l-11.063,11.063c-0.776,0.776-0.776,2.033,0,2.809c0.387,0.389,0.896,0.583,1.404,0.583
		c0.508,0,1.017-0.194,1.404-0.583L57.416,96.98c4.751,4.094,10.745,6.326,17.082,6.326c7.003,0,13.586-2.727,18.539-7.679
		c2.495-2.495,4.759-5.458,6.775-8.854c0.041-0.06,0.078-0.123,0.11-0.187c1.246-2.116,2.394-4.397,3.44-6.841
		c0.857-2,1.646-4.109,2.367-6.316c0.006-0.019,0.013-0.038,0.019-0.056C106.857,69.968,107.803,66.33,108.572,62.487z
		 M89.803,46.926c7.381-1.48,13.788-1.927,16.92-2.062c-0.134,3.134-0.58,9.541-2.061,16.92c-0.557,2.772-1.299,5.852-2.279,9.035
		L83.575,70.82l11.553-11.552c0.776-0.776,0.776-2.034,0-2.809c-0.774-0.776-2.032-0.776-2.81,0L80.768,68.012V49.206
		C83.95,48.225,87.031,47.482,89.803,46.926z M97.006,83.672h-26.28l8.877-8.879h21.439C99.939,77.791,98.611,80.807,97.006,83.672z
		 M76.796,50.545v21.438l-8.879,8.878V54.582C70.783,52.977,73.797,51.648,76.796,50.545z M52.252,77.089
		c0-5.941,2.314-11.527,6.516-15.729c1.583-1.583,3.327-3.012,5.176-4.301l0.001,27.774l-6.519,6.521
		C54.077,87.359,52.252,82.366,52.252,77.089z M90.229,92.82c-4.203,4.201-9.789,6.516-15.73,6.516
		c-5.275,0-10.269-1.825-14.263-5.173l6.519-6.519h27.775C93.24,89.494,91.811,91.236,90.229,92.82z"/>
</g>
</svg>
