<?xml version="1.0" encoding="iso-8859-1"?>
<!-- Generator: Adobe Illustrator 16.0.0, SVG Export Plug-In . SVG Version: 6.00 Build 0)  -->
<!DOCTYPE svg PUBLIC "-//W3C//DTD SVG 1.1//EN" "http://www.w3.org/Graphics/SVG/1.1/DTD/svg11.dtd">
<svg version="1.1" id="Layer_1" xmlns="http://www.w3.org/2000/svg" xmlns:xlink="http://www.w3.org/1999/xlink" x="0px" y="0px"
	 width="734.417px" height="215.749px" viewBox="0 0 734.417 215.749" enable-background="new 0 0 734.417 215.749"
	 xml:space="preserve">
<g enable-background="new    ">
	<path fill="#8F191C" d="M106.011,178.33L67.838,53.943h-0.976c1.373,25.305,2.061,42.186,2.061,50.645v73.742H38.884V19.784h45.764
		l37.522,121.242h0.65l39.799-121.242h45.764V178.33h-31.341v-75.044c0-3.542,0.054-7.627,0.163-12.254
		c0.108-4.625,0.597-16.917,1.464-36.871h-0.976L136.81,178.33H106.011z"/>
	<path fill="#8F191C" d="M315.418,178.33L277.246,53.943h-0.976c1.373,25.305,2.061,42.186,2.061,50.645v73.742h-30.039V19.784
		h45.764l37.522,121.242h0.65l39.8-121.242h45.763V178.33h-31.34v-75.044c0-3.542,0.053-7.627,0.162-12.254
		c0.107-4.625,0.596-16.917,1.463-36.871h-0.975L346.217,178.33H315.418z"/>
	<path fill="#8F191C" d="M457.698,178.33V19.784h33.617V178.33H457.698z"/>
	<path fill="#8F191C" d="M685.649,178.33h-38.281l-21.473-83.285c-0.795-2.964-2.15-9.091-4.066-18.382
		c-1.916-9.289-3.02-15.525-3.307-18.707c-0.434,3.904-1.52,10.177-3.254,18.815c-1.734,8.64-3.074,14.803-4.012,18.49
		l-21.363,83.068H551.72L511.271,19.784h33.076l20.277,86.54c3.543,15.978,6.109,29.821,7.701,41.534
		c0.434-4.121,1.426-10.501,2.982-19.141c1.553-8.639,3.018-15.346,4.391-20.117l23.1-88.816h31.773l23.1,88.816
		c1.012,3.977,2.277,10.051,3.795,18.219c1.52,8.171,2.674,15.183,3.471,21.039c0.723-5.64,1.879-12.67,3.471-21.093
		c1.59-8.421,3.035-15.237,4.338-20.441l20.17-86.54h33.076L685.649,178.33z"/>
</g>
<g enable-background="new    ">
	<path fill="#F3F3F3" d="M86.065,169.303L47.893,44.917h-0.976c1.373,25.305,2.061,42.185,2.061,50.644v73.742H18.938V10.757h45.764
		l37.522,121.241h0.65l39.799-121.241h45.764v158.546h-31.341V94.259c0-3.542,0.054-7.627,0.163-12.254
		c0.108-4.625,0.597-16.917,1.464-36.871h-0.976l-40.884,124.169H86.065z"/>
	<path fill="#F3F3F3" d="M295.473,169.303L257.3,44.917h-0.976c1.373,25.305,2.061,42.185,2.061,50.644v73.742h-30.039V10.757
		h45.764l37.522,121.241h0.65l39.799-121.241h45.764v158.546h-31.341V94.259c0-3.542,0.055-7.627,0.163-12.254
		c0.108-4.625,0.597-16.917,1.464-36.871h-0.976l-40.884,124.169H295.473z"/>
	<path fill="#F3F3F3" d="M437.753,169.303V10.757h33.617v158.546H437.753z"/>
	<path fill="#F3F3F3" d="M665.704,169.303h-38.281L605.95,86.018c-0.797-2.964-2.152-9.091-4.066-18.382
		c-1.916-9.289-3.02-15.525-3.309-18.707c-0.434,3.904-1.518,10.177-3.252,18.815c-1.736,8.64-3.074,14.803-4.014,18.49
		l-21.363,83.068h-38.172L491.323,10.757h33.076l20.279,86.538c3.541,15.979,6.109,29.822,7.699,41.535
		c0.434-4.121,1.428-10.501,2.982-19.141c1.555-8.639,3.018-15.346,4.393-20.116l23.098-88.816h31.775l23.098,88.816
		c1.012,3.976,2.277,10.05,3.797,18.219c1.518,8.17,2.674,15.182,3.471,21.038c0.721-5.64,1.879-12.67,3.469-21.093
		c1.59-8.421,3.037-15.237,4.338-20.442l20.172-86.538h33.074L665.704,169.303z"/>
</g>
</svg>
