<?xml version="1.0" encoding="iso-8859-1"?>
<!-- Generator: Adobe Illustrator 16.0.0, SVG Export Plug-In . SVG Version: 6.00 Build 0)  -->
<!DOCTYPE svg PUBLIC "-//W3C//DTD SVG 1.1//EN" "http://www.w3.org/Graphics/SVG/1.1/DTD/svg11.dtd">
<svg version="1.1" xmlns="http://www.w3.org/2000/svg" xmlns:xlink="http://www.w3.org/1999/xlink" x="0px" y="0px"
	 width="1020.833px" height="865.75px" viewBox="0 0 1020.833 865.75" enable-background="new 0 0 1020.833 865.75"
	 xml:space="preserve">
<g id="cbc">
</g>
<g id="canada">
	<g id="BC_2_">
		<path fill="#D0D5D4" d="M23.526,410.95c0,0,81.277,57.215,174.319,83.951l-33.687,136.891l18.715,17.645l27.805,63.632v17.646
			l6.952,5.882v6.951c0,0-109.618-27.805-114.43-29.945l-3.209-14.437l-18.18-19.783c0,0,7.486-12.835,2.139-14.438
			c-5.348-1.604-13.902-4.277-13.902-4.277l-0.536-8.556l-12.298-6.416l4.278-12.833c0,0-6.417-4.276-4.813-6.952
			c0,0,6.149-3.744,0.802-13.368c-5.348-9.626-6.684-15.509-5.348-18.447c1.337-2.942,6.685-4.548,3.744-12.835
			c-2.942-8.287-5.616-16.309-2.139-23.261c3.476-6.95,12.298-10.159,12.566-16.575c0.268-6.415-0.269-14.438-0.269-14.438
			s-16.308-10.157-15.506-14.972c0.802-4.812,3.208-11.496,4.545-13.367c1.337-1.872-2.941-61.761-2.941-61.761l-25.399-1.335
			L23.526,410.95z"/>
		<path fill="#D0D5D4" d="M41.947,647.397h3.729c0,0,18.215,21.506,20.848,24.36c2.635,2.853-1.097,6.143,1.756,10.092
			c2.853,3.952,13.386,20.188,13.386,20.188s-3.292,13.167-15.14-2.193c-11.851-15.36-14.046-18.652-15.362-18.87
			c-1.316-0.22,3.072-3.512,1.976-5.707c-1.098-2.193-5.486-7.901-9.217-8.778c-3.729-0.879-3.072-8.338-0.877-8.997
			C45.239,656.837,44.581,652.007,41.947,647.397z"/>
	</g>
	<path id="AB_2_" fill="#D0D5D4" d="M199.806,495.974l-33.153,134.037c0,0,14.974,13.545,18.539,18.893
		c3.563,5.348,7.127,16.396,7.127,16.396s17.468,38.858,19.251,43.492c1.782,4.635,1.782,12.477,1.782,12.477v8.2l6.06,4.989v9.091
		l51.334,7.309c0,0,19.962-222.446,23.527-233.497C294.275,517.36,215.937,501.372,199.806,495.974z"/>
	<path id="SK_2_" fill="#D0D5D4" d="M295.343,517.73c0,0,60.958,1.799,79.139-1.798c0.712,14.022,11.407,244.547,11.407,244.547
		l-113.361-8.991C272.528,751.488,293.917,539.669,295.343,517.73z"/>
	<path id="MB_2_" fill="#D0D5D4" d="M376.264,515.933c0,0,28.519,3.922,69.515-7.84c0,0-0.712,7.485,0,13.547
		c0.714,6.057,2.497,9.982,5.703,12.477c3.208,2.495,6.417-6.773,11.409,0c4.989,6.771,15.686,29.23,15.686,29.23
		s6.415-0.712,12.475-5.347c9.271,3.923,26.384,14.259,31.019,12.833s-54.546,91.974-55.791,94.469
		c-1.249,2.496,2.315,67.731,4.811,75.934c0,0,0.357,5.346-1.781,6.415c-2.139,1.068-81.278,12.831-81.278,12.831
		S378.047,535.538,376.264,515.933z"/>
	<path id="ON_3_" fill="#D0D5D4" d="M526.802,571.233l-2.342,4.314l-56.045,91.18c0,0,4.813,75.572,6.596,78.068
		c1.781,2.494,5.344,8.198,9.267,8.557c3.923,0.357,12.12-4.994,17.109-3.209c4.994,1.782,12.644,11.765,23.077,10.338
		c10.436-1.426,20.061-1.782,21.844-2.851c1.781-1.07,11.408-20.32,15.686-24.954c4.279-4.635,11.406-5.705,14.26-2.853
		c2.852,2.853,5.35,2.495,9.623,1.07c4.279-1.426,10.697,4.991,11.053,7.13c0.357,2.139,14.973,2.853,14.973,2.853
		s13.547,25.666,19.25,27.803c5.703,2.141,12.834,0.714,25.311,0c12.477-0.712,28.162-0.356,28.162-0.356
		s14.615,8.198,14.615,10.697c0,2.494,7.131,10.692-12.121,3.92c-3.209-0.714-8.914,0-10.693,1.068
		c-1.783,1.068,1.426,4.634,2.494,8.914c1.07,4.275-0.359,12.121,0,16.396c0.355,4.279,2.852,6.062,3.564,8.199
		c0.715,2.141,2.141,4.634-1.783,8.912c-3.92,4.279-6.059,5.706-4.992,12.121c1.072,6.418,0.359,8.912-0.354,10.339
		s0.711,13.903,8.912,2.853c8.197-11.053,10.695-16.042,13.191-17.826c2.494-1.78,12.117-1.78,12.117-1.78
		s7.488-11.051,11.051-12.121c3.566-1.07,5.703-2.497,0-9.98c0,0-5.348-3.923-1.426-8.914c3.924-4.989,1.072-9.622,2.855-11.406
		c1.779-1.782,8.197-3.209,11.762-3.565c3.564-0.355,19.248-11.408,26.021-23.527c6.771-12.121,12.121-12.833,13.547-13.189
		c1.426-0.355,1.072-19.606-7.84-14.973c-8.912,4.635-14.975,8.912-23.174,8.912s-11.051-5.348-15.328-3.922
		c-4.277,1.427-7.842,3.565-12.832,3.209c-4.992-0.357-8.557-6.773-12.121-10.696c-3.566-3.921-12.832-6.771-13.904-7.485
		c-1.068-0.715-6.059-13.548-7.129-18.539c-1.068-4.986-20.318-66.305-20.318-66.305l-6.775-1.066c0,0-0.713,11.404-4.275,12.477
		c-3.566,1.068-5.703-0.358-5.703-0.358s3.564-8.909-4.637-12.118c-8.197-3.209-23.527-7.842-29.586-30.657
		c-6.062-22.817-5.348-27.455-18.18-28.165c-12.834-0.712-11.766,1.07-24.242,0.712
		C555.296,580.111,535.188,580.087,526.802,571.233C526.497,570.912,527.075,571.582,526.802,571.233z"/>
	<g id="QC_1_">
		<path id="quebec_2_" fill="#D0D5D4" d="M663.591,637.851c0,0,25.135,79.854,27.092,83.418c0,0,2.139,1.959,3.566,2.494
			c1.426,0.535,6.592,2.854,7.664,3.922c1.07,1.069,6.949,7.487,7.842,8.734c0.891,1.25,4.811,6.24,12.477,2.317
			c7.666-3.921,11.766-0.889,13.547,0c1.781,0.892,8.021,3.563,15.865,0.177c7.84-3.385,14.436-6.95,14.436-6.95
			s7.484-3.566,9.982,5.883c2.496,9.444,11.227-0.535,15.506-3.03c4.277-2.496,17.826-6.059,24.064-15.688
			c6.238-9.622,5.168-17.289,1.424-32.261c-3.742-14.972-3.025-23.349,3.033-26.734c6.059-3.388,6.594-6.597,7.484-12.479
			c0.891-5.881-2.316-6.06,4.457-12.478c6.773-6.415,15.15-16.221,21.207-22.994c6.064-6.773,10.877-9.268,10.697-14.972
			c-0.18-5.703-1.07-6.597-4.277-8.912c-3.209-2.317-7.129-6.417-18.182,3.921c-11.049,10.339-22.281,19.607-25.846,36.365
			c-3.562,16.754-7.309,31.679-6.951,35.089c0.357,3.408,1.248,5.548,1.248,5.548l0.18,6.237l-4.812,0.179
			c0,0-0.713-5.752-0.535-11.964c0.176-6.214-0.715-20.832,0.355-25.823c1.07-4.989,2.318-19.604,4.457-22.636
			c2.137-3.03,8.197-8.912,8.197-8.912l0.891-22.639l45.279-37.073h8.371l16.4-19.073v-31.726l12.479-14.974
			c0,0,0.711-10.517-8.023-2.317c-8.732,8.198-53.115,49.552-53.115,49.552s-6.951-3.923-9.623-8.912
			c-2.676-4.989-8.914-8.2-11.408-5.349c-2.498,2.853-2.498,2.853-2.498,2.853l14.617,14.617l1.248,6.95
			c0,0-8.736,8.735-19.432,5.881c-10.691-2.851-21.207-7.665-28.514-12.119c-7.312-4.456-13.727-12.123-14.619-13.368
			c-0.889-1.247-0.889-13.547-0.889-13.547s23.705-9.624,26.912-13.01c3.209-3.389,5.525-13.028,5.35-16.675
			c-0.178-3.646-5.527-12.559-12.121-17.729c-6.596-5.168-9.445-11.761-15.328-21.745c-5.883-9.98-9.092-11.228-11.943-12.652
			c-2.852-1.426-9.625-2.319-9.625-2.319l-14.793-16.397l-5.525-1.785l-4.457-6.413v-8.735h-4.635v13.725
			c0,0,2.854,1.961,3.926,10.696c1.066,8.735,4.631,8.735-0.182,15.507c-4.812,6.773-5.168,9.624-7.486,11.765
			c-2.316,2.139,0,0.535-5.705,0.712c-5.703,0.18-8.732,0.358-11.051,2.497c-2.316,2.139-4.988,6.238-6.416,5.88
			c-1.424-0.355-3.027-3.741-1.961-5.703c1.07-1.962,3.744-1.604,3.744-1.604s-4.633-13.903-7.842-14.617
			c-3.207-0.712-14.26,1.072-16.398,0.716c-2.137-0.357,10.516-4.456,10.875-8.556c0.357-4.103-4.457-7.132-6.236-9.447
			c-1.785-2.317-2.141-6.597-5.883-3.564c-3.744,3.029-2.141,3.208-2.141,3.208l-14.434-0.714l-1.605-4.635
			c0,0-14.084,1.426-14.973-1.068c-0.893-2.495-0.893-6.773-0.893-6.773l-13.902-0.18c0,0,0,4.993-11.408,8.2
			c-11.406,3.209-20.498,4.814-20.498,4.814s-7.127,6.95-3.92,9.803c3.209,2.849,9.623,9.267,10.16,9.979
			c0.533,0.714,2.137,7.132,2.137,7.132l-1.426,6.413c0,0,16.043,18.185,16.4,22.105c0.355,3.921-0.18,8.198-1.604,12.121
			c-1.43,3.921-0.18,12.119-0.18,12.119s4.635,6.95,7.84,7.309c3.209,0.355,11.23,0.179,11.23,0.179l17.291,32.616l3.564,0.894
			l-0.18,3.921c0,0-2.141,17.289-5.703,22.637c-3.564,5.348-9.268,8.554-9.445,11.763c-0.182,3.209,0.535,13.724,0.535,13.724
			s9.443,7.488,11.584,10.874c2.139,3.388,7.486,19.251,10.162,22.28c2.672,3.029,4.988,2.496,4.988,2.496l-0.357,6.418
			c0,0-2.139,8.377-0.889,9.447c1.246,1.068,5.17,3.742,5.17,3.742S669.474,640.706,663.591,637.851z"/>
		<path id="a-island_2_" fill="#D0D5D4" d="M854.487,564.715l-8.023,3.978v5.081c0,0,6.418-1.784,9.359-2.631
			c2.939-0.845,4.012,1.917,10.959,0c6.953-1.915,9.896-2.931,12.836-4.428s8.021-5.239,0-6.043
			C871.597,559.87,858.437,562.755,854.487,564.715z"/>
	</g>
	<g id="NL_2_">
		<path id="newf_2_" fill="#D0D5D4" d="M731.231,390.63c0,0-0.375,3.941,0.617,6.441c0.184,0.462,0.412,0.875,0.701,1.205
			c1.846,2.107,4.748,4.218,4.748,4.218s7.721,4.747,9,6.593c1.281,1.843,4.971,7.906,6.555,8.7c0,0,2.021,2.372,4.131,2.897
			c2.109,0.529,5.799,0.527,7.557,1.933c1.758,1.408,7.209,4.397,10.545,10.371c3.34,5.977,8.438,14.939,8.438,14.939
			s14.588,15.819,15.822,17.226c1.229,1.404,14.059,19.684-6.857,31.107c-20.916,11.425-20.564,7.735-20.211,12.131
			c0.35,4.393-1.055,6.678,1.053,8.961c2.111,2.285,6.504,7.908,10.547,10.721c4.043,2.814,25.477,15.391,31.98,14.687
			c6.5-0.704,21.205-3.701,11.361-13.368c-9.842-9.667-13.635-11.361-13.635-11.361l5.445-6.125c0,0,6.502-2.812,11.422,2.814
			c4.924,5.621,6.506,8.084,6.506,8.084l2.811,1.58l53.959-48.859c0,0,6.326-5.449,8.086,0.704c0.174-6.328,0-8.086,0-8.086
			s6.531-6.326-0.867-13.181c-7.395-6.857-17.588-18.982-17.588-18.982s-10.195,2.635-13.711,5.799
			c-3.514,3.164-1.404,1.579-5.094,0.353c-3.691-1.231-8.262,2.282-10.898,7.908c-2.637,5.624-4.57,9.843-4.043,14.939
			c0.529,5.097-1.758,7.03-3.164,8.788c-1.406,1.76-7.031,2.462-5.977-2.283c1.055-4.747,2.109-9.314,5.1-14.764
			c2.984-5.449,6.15-11.777,6.852-14.941c0.707-3.162,5.627-6.328-0.525-8.963s-2.812-4.041-8.789,0.177
			c-5.977,4.219-5.449,5.8-14.588,7.382c-9.141,1.581-4.922-0.177-20.738-1.232c-15.82-1.054-10.02,3.866-16.875-0.175
			c-6.854-4.043-6.854-1.756-4.043-6.151c2.812-4.395,0.877-9.842,0.877-9.842s-11.068-3.691-16.516-7.382
			c-5.451-3.691-2.637-5.977-9.67-7.56c-7.029-1.581-9.666-1.581-11.6-5.095c-1.932-3.518-4.568-5.976-8.084-6.68
			C738.349,395.552,734.657,397.133,731.231,390.63z"/>
		<path id="labrador_2_" fill="#D0D5D4" d="M907.69,472.175c0,0-3.688,7.488-2.916,14.172c0.775,6.685,10.938,41.441,11.738,44.648
			c0.803,3.209,1.068,5.616,0,8.557c-1.068,2.941-0.996,7.219,0.705,7.485c1.701,0.269,5.178-0.118,6.781-2.73
			c0.27,10.753,0,17.436,0,17.436s1.873,7.551,4.812,4.043c2.941-3.506,29.41-33.72,29.41-33.72s1.07,7.486,7.752,1.339
			c6.686-6.151,7.488-8.556,7.488-8.556l-1.873,11.225c0,0-2.139,1.338-2.406,3.211c-0.268,1.872,3.207,17.379,8.021-1.605
			c4.811-18.981,1.605-13.902,0-19.515c-1.605-5.616,2.541-4.813,2.541-4.813l5.746-0.268l3.475,13.369l4.279-0.535l1.871-4.277
			c0,0,1.604,3.475,5.348,2.139c3.742-1.337,7.221-0.27,5.615-6.951c-1.604-6.684-1.604-11.229-5.08-11.765
			s-3.477-4.276-3.477-4.276l-10.16-0.535c0,0-4.277,10.961-6.682,5.613c-2.406-5.348-2.406-9.091-2.406-9.091l1.604-4.544
			c0,0-2.408-2.141-6.953,0.535c-4.545,2.672-5.881-1.605-7.752-5.616c-1.873-4.008-4.277-8.289-12.834,1.068
			c-8.557,9.358-11.764,10.159-11.764,10.159l-4.545-0.264l-0.266-4.279c0,0-4.279,6.953-8.559,7.217
			c-4.277,0.271-12.297-20.318-12.564-28.875C914.376,463.619,908.347,470.682,907.69,472.175z"/>
	</g>
	<g id="NS_2_">
		<path id="ns-main_2_" fill="#D0D5D4" d="M899.759,638.921c0,0,0.535,1.783,12.121-4.635c11.584-6.418,13.545-8.555,15.148-9.267
			c1.604-0.716,12.656-1.249,9.627,3.026c-3.029,4.278-7.488,13.369-9.268,16.221c-1.783,2.853-5.35,9.626-5.17,12.477
			c0.178,2.853-3.029,3.209-5.527,5.883c-2.494,2.671-3.027,8.734-3.027,8.734s-1.605,21.211-2.674,22.278
			c-1.07,1.07-3.566,6.418-8.377,6.418c-4.812,0-4.455-1.427-7.842-3.03c-3.389-1.605-4.635-1.068-5.525-3.206
			c-0.893-2.141-3.031-1.896-2.498-5.496c0.535-3.596,0-5.021,4.1-11.973c4.102-6.95,5.234-9.933,8.055-14.056
			c2.82-4.124,5.135-5.371,7.273-7.868c2.139-2.495,3.566-2.317,4.1-4.989c0.535-2.674,0.357-5.883-2.494-4.635
			c-2.85,1.247-2.465,4.781-4.441,6.313c-1.977,1.528-4.438,1.351-4.438,1.351S903.325,646.767,899.759,638.921z"/>
		<path id="cape-island_2_" fill="#D0D5D4" d="M924.714,588.299v5.348c0,0,1.244,1.245,1.244,3.744c0,2.496,0,18.18,0,18.18
			s6.775,5.171,8.383,5.526c1.6,0.358,1.6-1.906,5.879-7.192c4.277-5.284,5.525-8.313,3.744-12.949
			c-1.785-4.635-3.385-5.17-5.348-2.141c-1.961,3.032-3.031,3.921-4.635-0.892c-1.605-4.81-0.535-4.274-3.742-7.129
			C927.028,587.943,925.604,588.655,924.714,588.299z"/>
	</g>
	<path id="YT_2_" fill="#D0D5D4" d="M12.03,393.569l103.468-165.494c0,0,12.833,3.742,14.705,13.637
		c1.872,9.891,5.347,19.251,5.347,19.251s4.813,5.347,2.407,10.694c-2.407,5.345-9.091,8.82-9.359,12.029
		c-0.267,3.209-5.345,7.219-1.068,11.229s6.951,7.485,9.358,10.426c2.406,2.942,4.823,3.746,1.744,13.368
		c-3.081,9.627,2.238,13.104,1.451,14.974c-0.789,1.872-1.858,10.961-5.868,13.903c-4.01,2.94-1.337,2.139,0.535,7.752
		c1.87,5.614,10.159,14.705,8.823,20.055c-1.337,5.346-2.407,7.75-2.941,13.901c-0.534,6.148-4.545,14.17-4.545,18.715
		c0,4.544-2.406,9.627,1.336,9.892c3.743,0.269,6.294,0,6.294,0s1.459,10.161,1.726,14.172c0.268,4.01-0.533,10.475,1.337,13.524
		c1.872,3.052,6.953,9.468,9.893,11.873c2.941,2.409,10.426,10.161,10.696,14.976c0.267,4.808,1.425,10.959,1.425,10.959
		S41.439,429.933,12.03,393.569z"/>
	<g id="NT_1_">
		<path id="nt-main_2_" fill="#D0D5D4" d="M171.644,483.139c0,0-0.534-9.092-2.853-14.616c-2.315-5.525-7.842-12.477-11.051-15.329
			c-3.208-2.851-8.198-7.663-8.911-9.804c-0.713-2.138-1.248-11.226-1.604-15.327c-0.356-4.1-2.139-14.08-2.139-14.08
			s-4.812,0.354-5.706,0c-0.889-0.356-1.96-5.885,0-9.982c1.962-4.101,6.419-22.995,6.776-28.519
			c0.354-5.526-3.032-12.119-6.062-17.469c-3.031-5.347-5.347-6.952-4.1-8.734c1.248-1.781,6.417-11.049,6.773-13.546
			c0.357-2.496,0.178-5.347-0.89-7.309c-1.07-1.959-1.605-5.166-0.535-9.269c1.069-4.1,2.496-10.692-2.14-16.039
			c-4.634-5.348-7.308-7.13-8.2-8.735c-0.89-1.602-3.028-3.921-2.496-5.703c0.535-1.782,2.674-6.24,4.635-7.665
			c1.959-1.424,5.347-6.595,6.06-8.019c0,0,1.248-4.103,1.248-5.706c0-1.603,1.604-2.851,1.96-2.14
			c0.357,0.714,4.277,2.496,5.348,2.319c1.07-0.177,4.1-6.238,12.3-8.914c8.198-2.672,15.506-4.636,19.25-3.386
			c3.743,1.249,12.657,4.812,5.525,6.415c-7.13,1.605-9.445,1.784-11.763,1.962c-2.318,0.179-9.27,0-9.27,0l-0.177,4.278
			l28.696,0.713c0,0,7.13-8.912,9.269-8.021c2.138,0.892,3.031,1.25,3.031,4.634c0,3.388,0,15.688,0,15.688s1.425,5.526,7.486-1.247
			c6.059-6.774,11.763-9.449,11.05-2.32c-0.713,7.132-4.813,9.092-1.96,10.16c2.851,1.07,8.911-3.387,10.337-3.922
			c1.426-0.532,9.446-3.741,12.655,4.814c3.209,8.555,5.704,9.802,4.633,11.763c-1.068,1.962-13.189,31.014-13.189,31.014
			l44.737,60.96l32.619,0.356v23.525l66.662,17.826l-1.249,78.96c0,0-48.213,7.04-80.03,1.426
			C266.557,508.536,186.082,492.229,171.644,483.139z"/>
		<path id="nt-isl1_2_" fill="#D0D5D4" d="M277.252,286.36l52.402,8.822c0,0,3.209-33.744,1.872-40.399s1.068-12.807-8.825-13.34
			c-9.893-0.535-10.961,0-10.961,0l-1.068-8.021l-13.37-1.872l0.269-9.624c0,0-12.299,1.067-14.972,4.812
			c0,0-12.566,8.823-12.566,10.784c0,1.962-1.247,9.982-1.247,9.982s-2.495,2.494-2.139,4.1c0.355,1.604,2.495,5.348,5.882,4.989
			c3.386-0.355,8.733,1.07,8.733,1.07s1.782,3.386-0.535,3.921c-2.317,0.533-8.734,0.178-9.447,1.605
			c-0.712,1.427-3.386,2.137-3.386,4.456c0,2.315,1.247,8.91,4.456,9.089c3.208,0.18,24.598,3.03,24.777,3.742
			c0.177,0.717,4.991,5.348,1.247,5.348c-3.744,0-6.597-1.78-8.912-1.78C287.146,284.042,277.342,283.863,277.252,286.36z"/>
		<path id="nt-isl2_2_" fill="#D0D5D4" d="M263.438,185.12c0,0,5.704,7.664,8.378,8.199c2.671,0.535,6.417,2.493,8.199,3.742
			c1.781,1.248,6.595,6.06,6.772,7.31c0.178,1.247,0,13.724,0,13.724s-0.535,0.356-6.772,3.03
			c-6.239,2.673-12.191,5.526-13.404,6.417c-1.212,0.89-9.233,7.663-9.947,9.267c-0.713,1.605-0.796,8.377-2.625,10.338
			c-1.83,1.962-12.881,7.966-17.159,7.637c-4.277-0.328-9.445-6.21-9.445-10.131c0-3.923-2.854-9.626-3.032-12.3
			c-0.179-2.674,0-5.524,0-7.665c0-2.139,3.921-8.91,8.021-13.01c4.1-4.101,6.417-10.518,9.982-11.409
			c3.565-0.889,5.881-2.494,6.239-4.456c0.356-1.958,0.356-4.989,1.782-6.235C251.852,188.329,261.188,182.305,263.438,185.12z"/>
		<path id="nt-isl3_2_" fill="#D0D5D4" d="M311.029,151.61v5.525h6.239c0,0,14.08-9.801,11.048-14.081
			c-3.03-4.276-3.742-7.84-7.307-6.417c-3.565,1.426-9.626,2.319-11.409,3.029c-1.782,0.716-4.991,2.674-6.238,3.388
			c-1.246,0.715-6.239,5.707-7.663,5.882c-1.426,0.177-3.923,0-4.635,1.246c-0.712,1.25-3.386,3.031-1.426,5.707
			c1.961,2.672,5.168,7.306,6.594,7.661c1.428,0.358,3.744,2.317,4.635,0c0.891-2.316,0.177-5.525,1.959-7.308
			C304.611,154.461,309.959,151.254,311.029,151.61z"/>
		<path id="nt-isl4_2_" fill="#D0D5D4" d="M338.119,177.633c0,0-4.159-14.08-6.269-15.329c-2.108-1.247-13.338-2.764-17.259,2.361
			c-3.921,5.127-6.338,7.979-5.754,10.115c0.586,2.139,2.546,10.696,4.328,10.696s9.626,0.355,11.229,0
			c1.604-0.356,4.456-2.496,5.88-2.496c1.426,0,4.635,0.48,4.991,1.398c0.358,0.919,1.07,4.485,1.07,4.485s-3.565-0.359-5.706,0.89
			c-2.138,1.248-6.908,3.743-7.197,5.168c-0.289,1.426-1.178,7.311,0.782,7.487c1.961,0.177,13.191-4.635,13.903-5.705
			C338.833,195.634,339.761,182.789,338.119,177.633z"/>
	</g>
	<g id="NU_2_">
		<path id="iq-main_2_" fill="#D0D5D4" d="M380.72,511.478l1.068-80.923l-66.662-18.357v-22.992h-34.043l-42.957-59.534
			l14.082-32.793c0,0,7.842,10.513,9.625,11.583c1.781,1.068,14.972,3.565,16.22,3.388c1.249-0.179,4.278,7.84,4.278,10.16
			c0,2.317,2.139,9.445-2.496,9.624c-4.635,0.179-4.635,0.179-4.635,0.179v5.701c0,0,10.337,7.13,18.894,6.241
			c8.556-0.892,14.794-3.744,15.862-4.101c1.07-0.357,3.032-2.139,4.991,0.715c1.959,2.849,4.1,5.701,5.168,6.771
			c1.07,1.068,3.923,4.812,4.1,5.526c0.179,0.712-0.356,2.671-0.714,4.454c-0.356,1.784-0.356,4.102,1.25,4.635
			c1.603,0.535,5.524,3.921,6.238-2.317c0.712-6.239-1.426-6.951-2.317-8.021c-0.892-1.068-0.535-10.338-0.535-10.338l5.526-0.71
			L348.1,328.78c0,0,6.597,11.763,10.874,13.547c4.279,1.782,7.488,1.425,7.488,1.425l6.239,3.031c0,0,8.554,3.025,14.971,1.78
			c6.416-1.245,9.625,0.358,11.407,1.427c1.783,1.068,12.121,1.424,7.132-2.317c-4.991-3.744-7.132-4.456-7.132-5.881
			c0-1.424-0.891-5.883,1.961-5.883c2.853,0,6.06,0,9.091,0.356c3.03,0.356,6.771,1.427,6.951,6.418s0.356,10.515,2.853,10.515
			c2.495,0,4.454,1.427,4.454-4.453c0-5.883,0-13.725,0-13.725s9.27-4.279,8.735-10.341c-0.535-6.06-5.882-8.379-5.347-11.941
			c0.535-3.565,2.318-5.348-1.782-6.418c-4.1-1.067-16.219-4.454-16.042-9.442c0.179-4.994,1.07-15.867-0.891-21.213
			c-1.959-5.347,1.605-9.444,2.497-10.694c0.869-1.219,6.493-9.569,13.558-2.342c0.175,0.177,0.348,0.362,0.523,0.56
			c7.309,8.198,8.198,12.298,8.377,13.901c0.179,1.605,4.1,8.558,5.882,10.159c1.782,1.605,2.317,3.209,1.07,5.35
			c-1.248,2.141-3.211,3.564-1.248,6.062c1.959,2.492,1.959,5.166,4.633,5.166c2.673,0,2.673-0.177,3.923-0.89
			c1.247-0.714,2.136-3.564,2.136,1.248c0,4.812-1.424,7.129,1.429,8.912c2.85,1.784,3.207,6.95,5.88,3.743
			c2.673-3.208,4.991-10.515,8.197-9.091c3.211,1.427,8.914,4.102,8.914,6.06c0,0,2.137,5.168,0.712,7.13
			c-1.424,1.961-6.594,5.705-4.812,7.664c1.783,1.962,9.27,9.094,11.23,9.269c1.959,0.177,2.494,5.168,5.701-0.892
			c3.209-6.059,4.102-7.311,3.923-14.436c-0.179-7.13,0.022-14.618,0.022-14.618s2.34-1.245,0-6.592
			c-2.34-5.35-3.229-5.883-3.229-8.377c0-2.497,2.314-8.38,5.703-8.38c3.385,0,6.415,1.962,8.021,1.962s4.454-2.317,11.765,6.773
			c7.309,9.089,8.379,8.021,8.379,8.021s-4.814,3.386-5.17,4.1c-0.357,0.71,2.141,3.029,2.316,3.921
			c0.18,0.889,3.564,9.447,5.705,9.804c2.139,0.355,4.992,1.424,4.992,1.424v13.727c0,0-4.281,7.127-4.459,8.554
			c-0.174,1.427-2.674,6.416-4.1,7.488c-1.422,1.067-6.057,3.386-7.486,3.741c-1.426,0.358-4.815,0-8.735-0.891
			c-3.922-0.89-3.74,0.357-5.971,1.07c-2.228,0.714-4.722,1.249-4.366,2.673c0.356,1.425,0.535,3.744,3.209,3.744
			c2.671,0,2.671,0,2.671,0l0.535,11.229c0,0-4.632,7.309-7.308,7.663c-2.674,0.358-15.863,0.712-15.863,0.712
			s-2.139-4.452-3.029-3.027c-0.892,1.424-4.103,2.672-2.854,4.1c1.248,1.425,4.634,2.678,6.418,3.121
			c1.783,0.444,11.939,4.009,16.219,5.61c4.277,1.605,6.062,1.249,5.704,4.458c-0.356,3.207-1.425,5.703-1.338,7.663
			c0.088,1.959,2.768,5.703,0,6.773c-2.763,1.068-14.169,3.029-15.417,4.635c-1.249,1.602-5.703,9.802-5.882,11.049
			c-0.179,1.249,1.959,2.494-4.991,0.891c-6.951-1.605-12.654-2.141-14.436-3.029c-1.783-0.89-4.101-0.356-4.101-0.356l0.356,5.704
			c0,0,8.912,3.743,13.367,3.743c4.454,0,6.597,3.03,6.773,3.923c0.178,0.89-0.357,7.622-1.247,8.979
			c-0.892,1.359-2.853,3.496-5.526,4.743c-2.674,1.249-5.525,1.784-5.525,3.388c0,1.605-5.168,14.974-8.733,20.498
			c-3.565,5.524-7.307,13.012-7.129,16.042c0.179,3.029-0.533,14.613-0.533,14.613l-0.179,2.317c0,0-52.402,13.188-65.771,7.665
			C380.72,511.478,380.72,511.478,380.72,511.478z"/>
		<path id="iq-is1_2_" fill="#D0D5D4" d="M328.316,298.302l-52.937-9.626c0,0-5.881,2.496-6.772,3.564
			c-0.891,1.072,0.535,3.744,1.782,6.062c1.248,2.315,15.507,16.398,17.29,21.21c1.782,4.812,3.386,8.377,3.386,8.377h26.915
			c0,0,9.919-4.812,12.803-9.091c2.883-4.277,0.745-4.811,3.239-5.168c2.495-0.356,5.882,0.357,5.882,0.357s2.497,2.851,3.742,3.742
			c1.248,0.891,8.735,6.238,11.586,6.238c2.853,0,8.377,4.633,13.903-1.426c5.526-6.062,7.127-6.241,3.03-9.267
			c-4.098-3.032-8.912-3.386-5.704-4.993c3.209-1.604,9.269-1.068,9.803-3.923c0.535-2.849,3.565-5.348,0-9.177
			c-3.564-3.833-5.882-6.149-6.238-9.714c-0.356-3.566-10.338,0-10.338,0s-4.456-16.935-4.456-19.606
			c0-2.674-4.098-12.121-4.098-14.26c0-2.141-0.535-5.705-1.426-9.27c-0.893-3.565,0.712-4.989-1.426-6.058
			c-2.139-1.07-7.844-4.101-8.556-4.277c-0.712-0.181-4.277-2.496-4.277-2.496s-0.535,6.773-0.714,9.803
			c-0.179,3.03-0.712,9.804-0.177,11.228c0.535,1.427,3.744,3.388,3.744,5.706c0,2.317-3.032,4.991-3.744,6.773
			c-0.712,1.782-3.774,35.648-3.774,35.648L328.316,298.302z"/>
		<path id="iq-is2_2_" fill="#D0D5D4" d="M453.265,267.823h9.98v-2.851c0,0-18.181-1.784-18.537-7.129
			c-0.356-5.35-2.139-20.321-1.426-29.233c0.712-8.914,3.565-16.399,4.991-18.895c1.426-2.496,10.694-9.98,12.478-2.139
			c1.781,7.842,4.988,16.398,2.494,17.822c-2.494,1.427-3.207,6.139-1.068,10.557c2.139,4.417-1.023,11.188,1.984,11.547
			c3.006,0.358,8.709,2.494,8.709,2.494s2.141,6.42,2.495,7.844c0.356,1.425,5.703-3.208,5.347-7.487
			c-0.355-4.277-2.494-3.921-3.92-4.277c-1.427-0.355-6.062-0.357-6.418-4.991c-0.354-4.633-1.782-19.962-1.959-22.812
			c-0.178-2.854,1.247-10.339,2.671-11.766c1.427-1.424,6.063-6.614,11.765-2.415c5.703,4.198,11.766,11.327,12.478,13.468
			c0.712,2.139,0.535,11.763,2.941,11.763s3.83-2.494,5.256-3.921c1.427-1.426,4.994-7.842,6.776-9.624
			c1.783-1.782,4.99-4.991,8.199-4.991c3.207,0,9.982,3.209,11.586,2.497c1.604-0.715,4.812-0.715,6.953,1.424
			c2.137,2.139,4.99,2.853,7.84,2.139c2.852-0.712,13.902,0.356,13.902,0.356s0.357,5.705,2.854,7.131
			c2.496,1.427,5.346,2.495,8.91,1.427c3.566-1.07,14.973-1.784,14.973-1.784v6.775c0,0,4.992-3.923,7.129-3.211
			c2.141,0.712,4.279,2.497,4.279,5.703c0,3.209,0,3.209,0,3.209l7.486,1.427c0,0,2.139,4.989,1.783,8.556
			c-0.357,3.564-2.062,6.418,0.037,8.556c2.102,2.139-1.465,3.207,8.518,2.495c9.98-0.714,20.322-0.356,20.322-0.356
			s2.492-3.209,4.988-0.712c2.494,2.494,6.771,6.058,6.771,6.058s1.072,1.784,8.914,0.714s11.764-3.735,14.971-3.474
			c3.209,0.265,2.498,7.038,2.141,8.108c-0.355,1.068-4.633,1.425-3.207,4.634c1.424,3.208,4.93,4.635,3.535,9.626
			c-1.398,4.989-5.318,6.06-2.109,8.91c3.207,2.853,4.279,11.765,0.713,9.982c-3.564-1.782-5.705-2.794-13.189-4.604
			c-7.486-1.812-18.537-3.237-19.963-3.237c-1.428,0-8.199,1.068-4.99,5.703c3.207,4.635,12.121,14.974,14.615,15.33
			c2.494,0.355,3.922,2.851,10.338,2.851s12.832,0,12.832,0s2.854,5.703,5.705,6.062c2.852,0.355,8.912,3.206,8.912,3.206v6.062
			c0,0,2.498,3.562,4.992,7.84c2.494,4.279,1.422,9.986-3.566,10.341c-4.99,0.355-11.766,4.274-14.973,2.849
			c-3.209-1.425-8.912-4.989-11.049-5.346c-2.141-0.355-8.914-1.782-8.914,0.715c0,2.494,1.428,4.541,3.566,4.944
			c2.139,0.4,12.479,3.609,14.971,3.609c2.496,0,12.123,2.139,14.617,3.564c2.494,1.427,8.555,3.565,2.494,7.844
			c-6.059,4.277-10.336,1.78-15.328,3.565c-4.99,1.782-7.486,3.207-9.625,3.564c-2.139,0.356-1.783,2.851-5.703,0
			c-3.924-2.853-7.131-2.853-11.051-1.07c-3.922,1.782-7.486,0.715-9.98-1.068c-2.496-1.782-4.635-8.197-4.635-8.197h-16.398
			c0,0-8.197-7.49-12.121-7.846c-3.92-0.354-6.059,0.357-6.059,5.349s-3.924,2.139-3.924,2.139s-0.586,1.07-5.818,5.348
			c-5.23,4.276-8.441,8.914-14.143,4.635c-5.705-4.277-4.578-6.062-5.674-8.912c-1.102-2.851-0.684-5.348,0-8.2
			c0.684-2.851-1.455-4.991,5.316-6.06c6.773-1.067,11.406-2.853,12.832-5.347c1.428-2.495,7.842-4.993,7.842-9.624
			c0-4.634,4.637,1.426,0-4.634c-4.635-6.062-10.213-7.129-6.174-11.408c4.037-4.277,6.174-9.269,2.254-17.822
			c-3.924-8.557-3.564-14.615-13.904-17.471c-10.338-2.851-13.902-7.844-18.18-4.988c-4.279,2.851-9.623,6.415-10.693-1.783
			c-1.07-8.201-3.568-6.775-6.416-8.201c-2.854-1.425-6.418-6.058-8.557-7.484c-2.141-1.426-4.992-3.735-7.488-3.473
			c-2.494,0.264-4.99,3.117-2.139,5.611c2.854,2.496,3.566,3.921-1.068,4.991s-14.262-0.356-16.759,2.139
			c-2.494,2.496-4.988,6.775-10.336,6.417c-5.347-0.357-7.844,1.427-13.548,2.139c-5.701,0.712-6.415-1.784-9.268-1.424
			c-2.851,0.355-7.483,1.782-10.693,0.712C457.542,279.23,453.177,272.435,453.265,267.823z"/>
		<path id="iq-is3_2_" fill="#D0D5D4" d="M477.506,139.138c0,0-3.565-6.061-3.209-9.982c0.356-3.921,9.626-11.764,11.407-15.329
			c1.781-3.563,4.99-4.634,2.496-10.693c-2.496-6.06-2.319-6.774-6.509-6.416c-4.188,0.356-6.683-3.209-3.831-7.488
			c2.85-4.276,7.129-3.922,8.199-5.347c1.07-1.426-1.07-3.92-0.714-7.842c0.356-3.923-1.07-4.634,1.784-6.061
			c2.854-1.426,7.486-1.782,6.06-7.13c-1.427-5.347-4.636-15.684-3.923-19.249c0.717-3.565,2.496-9.268,2.496-9.268
			s-4.279,3.204-6.417,3.562c-2.139,0.359-5.105-6.772-1.483-7.485c3.621-0.713,9.504,0.714,9.594-4.635
			c0.09-5.347-0.625-20.319-11.317-16.754c-10.696,3.565-18.182,9.268-22.101,9.624c-3.923,0.358-11.765,0.715-13.905,2.854
			c-2.139,2.138-7.105,9.625-3.018,12.476c4.088,2.852,9.079,7.131,8.367,9.626c-0.714,2.495-4.991,0.357-6.773-1.07
			c-1.782-1.426-7.13-2.138-8.2,0c-1.068,2.14-3.921,4.278-7.486,5.705c-3.565,1.424-9.269,3.564-8.2,7.843
			c1.07,4.275,2.497,9.625,5.706,9.983c3.208,0.354,3.208-0.359,7.486-0.359c4.279,0,7.129-0.713,5.347,2.497
			c-1.783,3.209,2.497,9.268,6.417,2.138c3.921-7.129,0-3.922,3.921-7.129c3.923-3.208,10.338-8.198,12.121-4.635
			c1.782,3.565-0.571,9.626-4.741,12.121c-4.171,2.497-5.597,6.414-4.171,7.842c1.427,1.428,1.07,3.208,1.07,3.208h-10.861v8.556
			c0,0,9.435,6.06,12.286,7.488c2.853,1.424,7.129,4.633,4.635,8.556c-2.494,3.921-7.486,5.347-9.268,7.484
			c-1.783,2.139-6.06,6.062-4.277,9.271c1.782,3.206,3.918,6.058,6.415,5.347c2.495-0.716,9.624-4.991,11.407-1.069
			c1.781,3.922,6.061,11.052,2.14,11.764c-3.923,0.714-6.059-3.854-11.05-2.817c-4.991,1.034-4.277-0.593-6.774,2.894
			c-2.495,3.488-4.61,4.2-5.514,6.695c-0.903,2.496-3.375,11.408,0,11.765c3.376,0.356,5.158,4.634,16.209-2.139
			c11.05-6.772,10.696-4.633,14.973-3.563c4.277,1.067,6.772,5.347,11.049,0.712c4.278-4.633,10.173-7.843,8.118-9.981
			C491.407,140.563,481.427,139.851,477.506,139.138z"/>
		<path id="iq-is4_2_" fill="#D0D5D4" d="M443.117,172.731c0,0-24.164-17.913-26.303-17.913s-7.754,2.141-7.754,2.141l6.417,10.695
			c0,0,10.695,6.95,14.17,9.356s8.823,10.426,4.545,9.623c-4.277-0.802-7.219-3.741-9.357-3.741c-2.139,0-4.011-2.555-6.416-1.143
			c-2.407,1.409-4.279,4.349-3.476,7.826c0.802,3.475,2.409,10.692,5.75,10.692c3.341,0,1.469-3.207,6.547-4.277
			c5.081-1.067,8.29-0.532,13.368,0.27c5.081,0.804,27.004,5.347,38.768-3.476c11.765-8.823,21.48-11.229,18.896-16.844
			c-2.586-5.614-5.795-11.32-10.341-11.275c-4.544,0.046-11.496-0.756-14.437,2.72c-2.941,3.477-8.021,7.485-9.893,8.556
			c-1.871,1.069,2.94,4.545-7.754,1.604C445.154,174.604,443.117,172.731,443.117,172.731z"/>
		<path id="iq-is5_2_" fill="#D0D5D4" d="M423.232,126.211c0,0,7.217,8.288,13.1-2.14c5.88-10.426,9.291-10.962,6.786-20.585
			c-2.509-9.626-7.457-13.637-9.528-17.914c-2.069-4.278-4.743-12.3-9.022-12.834c-4.277-0.534-7.754-1.604-9.358-1.604
			c-1.605,0-6.149,0-6.149,0s-1.337,4.278,0,6.686c1.337,2.405,6.149,3.207,2.94,4.811c-3.209,1.604-8.554,1.276-8.554,1.276
			l1.604,4.606c0,0,5.88,0.803,6.684,2.407c0.802,1.604,1.336,3.207,1.336,3.207l-6.417,0.268l2.407,5.84
			c0,0,7.49-0.224,11.632,1.647c4.143,1.871,6.814,5.079,6.814,5.079s1.872,0.802-2.405,2.14c-4.279,1.337-6.417,2.139-6.417,5.881
			S423.232,126.211,423.232,126.211z"/>
		<path id="iq-is6_2_" fill="#D0D5D4" d="M395.425,124.607c-0.893-3.359-2.673-8.021-4.01-10.16
			c-1.339-2.139-2.942-8.556-8.556-8.556s-5.614,0-7.219,0c-1.604,0-6.416,0.267-4.81,3.743c1.604,3.476,5.736,2.14,7.144,4.546
			c1.41,2.406,8.039,5.882,4.991,6.95c-3.046,1.071-2.924-0.535-4.991,1.337c-2.065,1.872-7.681,3.572-3.668,6.866
			c4.01,3.294,15.773,8.642,16.843,8.642c1.068,0,2.94-2.674,5.614-3.477c2.674-0.802,5.347-1.174,6.684,1.821
			c1.337,2.992,4.545,4.596,5.614,2.724c1.07-1.871,4.279-4.01,4.279-7.487c0-3.475,3.208-4.543,0-6.684
			c-3.209-2.139-3.476-3.743-8.021-3.743c-4.546,0-4.011,3.477-5.347,4.813C398.634,127.28,396.884,130.086,395.425,124.607z"/>
		<path id="iq-is7_2_" fill="#D0D5D4" d="M339.814,179.951v15.774c0,0,15.238-2.406,20.587-7.887
			c5.347-5.479,6.149-3.877,6.416-10.294c0.269-6.415-0.267-8.915-3.742-12.879c-3.475-3.964-6.951-9.311-11.765-9.847
			c-4.812-0.534-8.288-1.932-6.417,4.515c1.872,6.448,2.407,12.061,1.872,14.2C346.232,175.673,347.3,181.021,339.814,179.951z"/>
		<path id="iq-is8_2_" fill="#D0D5D4" d="M345.428,131.022c0,0,0,4.175-1.872,5.298c-1.87,1.119-6.147-1.02-4.543,3.526
			c1.604,4.543-0.085,7.219,3.032,6.952c3.117-0.268,4.188-0.804,6.057-2.14c1.872-1.336,6.951-5.718,6.951-8.339
			c0-2.623,1.933-4.493-1.707-5.298C349.707,130.222,347.3,131.022,345.428,131.022z"/>
		<path id="iq-is9_2_" fill="#D0D5D4" d="M351.311,117.655c-1.913-0.958-3.742-1.069-6.149,0c-2.405,1.069-5.614,2.407-2.405,5.214
			c3.209,2.808,3.742,3.878,5.88,3.878c2.139,0,8.29-2.407,8.29-2.407S355.052,119.527,351.311,117.655z"/>
		<path id="iq-is10_2_" fill="#D0D5D4" d="M392.636,159.333c0,0-0.384,4.577,0,7.249c0.383,2.675,2.254,4.812,1.988,5.616
			c-0.267,0.803-1.605,3.743-4.277,0c-2.671-3.743-7.396-0.24-6.238,2.82s3.054,15.36,5.182,15.627
			c2.126,0.269,0.039,4.812,5.36,5.08c5.321,0.266,5.054-1.068,8.798-4.277c3.742-3.208,6.147-7.486,5.614-11.229
			c-0.535-3.744-0.804-7.487-1.872-9.892c-1.068-2.408-3.209,0.268-5.614-3.21c-2.407-3.475-1.605-4.848-3.742-6.032
			C395.692,159.898,394.656,157.968,392.636,159.333z"/>
		<path id="iq-is11_2_" fill="#D0D5D4" d="M406.12,207.488c0,0-1.604,26.47,0,30.746c1.605,4.279,5.614,11.763,5.614,13.368
			c0,1.604,3.03,0,3.03,0s3.388,0,2.851-4.545c-0.533-4.542-2.761-4.277-2.851-6.149c-0.088-1.872,4.191-1.872,5.929-1.872
			c1.736,0,6.814-3.475,7.618-8.019c0.802-4.546,9.356-14.972,4.812-18.716c-4.545-3.743-7.219-6.684-10.961-6.417
			C418.418,206.151,408.258,207.488,406.12,207.488z"/>
		<path id="iq-is12_2_" fill="#D0D5D4" d="M398.366,219.584c0,0-4.011,7.065-4.011,9.918c0,2.851-4.779,4.188-1.721,7.129
			c3.058,2.94,8.94,4.011,9.207,6.149c0.267,2.141,1.605,15.775,0,18.449c-1.604,2.673,0.533,9.891-6.417,10.159
			s-10.426,1.87-12.831-2.674c-2.407-4.544-1.483-8.556-4.619-12.031c-3.136-3.476-4.851-2.851-7.47-4.366
			c-2.619-1.515-0.895-2.582-3.628-4.188c-2.732-1.605,0-10.429,0-10.429l6.09,0.269v4.275h5.007c0,0,0.606-5.346-1.532-9.891
			c-2.139-4.544-5.079-8.554-2.139-10.428c2.94-1.87,4.277-4.412,6.147-2.34c1.874,2.073,4.013,0.068,6.953,0
			C390.345,219.52,395.692,214.038,398.366,219.584z"/>
		<path id="iq-is13_2_" fill="#D0D5D4" d="M414.764,139.847l-3.03,2.94l1.516,2.94h6.678h5.174c0,0,1.202-1.871-1.404-2.94
			C421.091,141.719,418.863,139.847,414.764,139.847z"/>
		<path id="iq-is14_2_" fill="#D0D5D4" d="M347.111,219.584c0,0-1.414,2.343-2.484,4.214c-1.07,1.87-4.01,4.44-2.141,5.293
			c1.872,0.856,3.732,1.123,6.68,3.262c2.946,2.141,1.876,1.337,2.946,0c1.068-1.335,0.267-3.156,0-5.722
			C351.846,224.062,347.111,219.584,347.111,219.584z"/>
		<path id="iq-is15_2_" fill="#D0D5D4" d="M498.691,194.388c0,0-4.61,2.94-6.214,3.207c-1.605,0.267-4.814,4.161-2.672,4.888
			c2.137,0.727,5.613,6.878,6.146,7.677c0.537,0.804,2.674,2.141,5.883,0c3.211-2.136,6.151-4.274,9.094-6.146
			c2.941-1.87,5.615-3.744,2.941-5.348c-2.674-1.605-1.07-4.01-3.477-4.277C507.984,194.121,498.691,194.388,498.691,194.388z"/>
		<path id="iq-is16_2_" fill="#D0D5D4" d="M559.054,293.312c-1.338,0.533-4.547,2.377-5.348,3.059
			c-0.805,0.684-6.15-0.922-4.014,6.03c2.139,6.951,2.408,9.625,2.408,12.031c0,2.407,0.801,2.407,5.615,1.872
			c4.812-0.535,7.752-1.337,8.822-3.743c1.07-2.407,6.686-1.314,2.674-7.61C565.202,298.66,559.054,293.312,559.054,293.312z"/>
		<path id="iq-is17_2_" fill="#D0D5D4" d="M514.403,377.187c-1.605-0.727-2.943-2.33-5.349-2.597c-2.408-0.269-5.616-4.279-5.348,0
			c0.267,4.274,1.068,13.368,1.068,16.04c0,2.676,2.404,3.743,2.404,9.091c0,5.35-4.574,10.696-3.491,12.031
			c1.087,1.337-0.165,8.559-0.165,8.559s-0.803-0.804,5.439-4.013c6.241-3.209,5.44-5.614,7.847-2.407
			c2.406,3.209,1.604,4.812,5.613,3.744c4.012-1.07,5.617,5.078,6.15-4.546c0.535-9.626-0.27-9.355,4.01-10.428
			c4.277-1.068,1.338-0.533,6.148,0.535c4.812,1.07,6.15,1.874,11.766,1.874c5.613,0,2.938,2.938,5.613,0
			c2.674-2.942,1.605-0.537,2.674-5.616c1.068-5.081,3.209-2.676,1.068-5.081c-2.139-2.406-4.277-1.337-9.355-2.406
			c-5.08-1.068-4.012-3.47-8.555-6.412c-4.547-2.944-3.477-4.017-8.289-3.746c-4.812,0.265-4.012,2.672-6.951-2.406
			c-2.941-5.083-3.477-7.755-6.416-5.083C517.343,376.995,514.403,377.187,514.403,377.187z"/>
		<path id="iq-is18_2_" fill="#D0D5D4" d="M627.231,614.68c-2.141,0-4.271,2.14-6.014,2.407c-1.742,0.266-3.605,0.266,0,2.939
			s5.211,3.211,8.15,2.674c2.941-0.535,5.082-1.953,2.408-3.917C629.101,616.817,627.231,614.68,627.231,614.68z"/>
		<path id="iq-is19_2_" fill="#D0D5D4" d="M544.349,418.17c0,0-0.805,1.337-1.338,3.741c-0.535,2.407-1.604,3.478-2.404,4.812
			c-0.805,1.337,0.801,5.35,0,8.556c-0.805,3.209,0,1.872,3.742,0c3.74-1.87,2.939-7.485,4.273-9.355
			c1.34-1.872,3.746-5.882,1.34-5.613C547.556,420.574,544.349,418.17,544.349,418.17z"/>
		<path id="iq-is20_2_" fill="#D0D5D4" d="M575.63,423.248c-0.537,0.269-2.809,0.535-2.809,2.542c0,2.004,1.07,6.95,1.402,7.352
			c0.334,0.4,4.615,8.421,4.615,8.421s2.004-7.618,1.604-10.159c-0.4-2.539-2.141-5.213-2.541-6.417
			C577.499,423.783,575.63,423.248,575.63,423.248z"/>
		<path id="iq-is21_2_" fill="#D0D5D4" d="M577.366,394.774c-0.955-0.189-3.342,2.004-2.273,3.744
			c1.07,1.739,1.871,4.678,3.207,4.813c1.338,0.131,2.809,3.876,4.68,0c1.871-3.878,4.01-2.942,1.205-4.813
			C581.376,396.646,578.704,395.041,577.366,394.774z"/>
		<path id="iq-is22_2_" fill="#D0D5D4" d="M584.985,386.888c0,0,0.27,1.469,0,2.94c-0.266,1.469-0.898,3.876,0.551,4.145
			c1.453,0.267,2.123-0.269,3.326-0.937c1.201-0.669,1.738-3.52,0.535-4.366C588.194,387.821,584.985,386.888,584.985,386.888z"/>
	</g>
	<path id="NB_2_" fill="#D0D5D4" d="M851.634,620.026c0,0-21.566,21.927-21.031,23.353c0.533,1.423-0.357,11.582-1.605,12.831
		c-1.248,1.25,6.596-2.317,6.596-2.317s3.744,7.309,5.703,9.447c1.961,2.139,9.627,18.536,12.656,20.319
		c3.027,1.781,10.516,10.693,18.535,1.961c8.02-8.737,11.406-19.43,13.904-24.064c2.494-4.633,3.383-8.557,5.346-8.733
		c1.961-0.179,5.885-1.247,6.061-5.703c0.18-4.456-0.355-5.883-1.604-7.844c-1.248-1.96-3.207-4.101-6.771-4.101
		c-3.566,0-5.883-0.355-5.883-0.355s-2.141-5.346-5.525-5.703c-3.389-0.356-6.773-1.783-6.773-1.783l0.355-7.309
		c0,0-1.246-5.705-4.633-4.993c-3.389,0.714-2.85,3.744-4.812,4.103c-1.963,0.355-6.061,0-6.061,0L851.634,620.026z"/>
	<path id="PE_2_" fill="#D0D5D4" d="M884.075,617.709c0,0-1.783,1.604-3.205,2.141c-1.43,0.535-0.715,5.347,1.6,6.415
		c2.318,1.07,3.207,4.457,7.131,4.277c3.92-0.175,6.057-0.533,11.764-2.496c5.705-1.96,7.033-1.604,9.486-4.989
		c2.455-3.386,2.359-5.883,0-7.132c-2.357-1.245-3.25-1.245-6.1,0.891c-2.854,2.141-5.348,4.153-9.447,5.999
		c-4.098,1.845-5.168,1.896-6.594,0C887.282,620.92,884.075,617.709,884.075,617.709z"/>
</g>
</svg>
