<?xml version="1.0" encoding="iso-8859-1"?>
<!-- Generator: Adobe Illustrator 16.0.0, SVG Export Plug-In . SVG Version: 6.00 Build 0)  -->
<!DOCTYPE svg PUBLIC "-//W3C//DTD SVG 1.1//EN" "http://www.w3.org/Graphics/SVG/1.1/DTD/svg11.dtd">
<svg version="1.1" id="mmiw-logo" xmlns="http://www.w3.org/2000/svg" xmlns:xlink="http://www.w3.org/1999/xlink" x="0px" y="0px"
	 width="657.107px" height="200.091px" viewBox="0 0 657.107 200.091" style="enable-background:new 0 0 657.107 200.091;"
	 xml:space="preserve">
<style type="text/css">
<![CDATA[
	.st0{fill:#8F1A1C;}
]]>
</style>
<g>
	<path id="letter-m1" class="st0" d="M96.6,137.058c-4.8,1.869-8.535,2.8-11.2,2.8c-8,0-12.469-1.131-13.4-3.4
		c-13.334-34.266-22.134-56.331-26.4-66.2c-0.4,3.6-1.469,11.934-3.2,25c-3.6,25.6-5.4,46.869-5.4,63.8
		c0,4.134,0.266,9.668,0.8,16.6c-9.334,0-15.634-1.1-18.9-3.3c-3.269-2.2-4.9-5.3-4.9-9.3c0-1.332,2.231-19.466,6.7-54.4
		c4.465-34.931,6.7-59.266,6.7-73v-1c-3.869-6.266-7.934-11.4-12.2-15.4c4.931-3.466,10.865-5.2,17.8-5.2c8.8,0,15.6,4.1,20.4,12.3
		c4.8,8.2,14.2,30.7,28.2,67.5l9.2,23.6c0.8-1.331,2-3.131,3.6-5.4c32.531-48.131,49.266-80.8,50.2-98c0,0.134,1.6,0.3,4.8,0.5
		c3.2,0.2,6.631,0.869,10.3,2c3.666,1.134,6.331,2.869,8,5.2c1.666,2.334,2.7,4.6,3.1,6.8c0.4,2.2,0.6,5.935,0.6,11.2
		c0,5.269-2.2,22.969-6.6,53.1c-4.4,30.134-6.6,51.234-6.6,63.3c0,12.068,0.931,20.3,2.8,24.7c-11.334-2.935-19.069-6.831-23.2-11.7
		c-4.134-4.865-6.2-11.631-6.2-20.3c0-5.066,1.366-17.531,4.1-37.4c2.731-19.865,4.631-35.731,5.7-47.6
		c-5.334,9.2-12.9,21.8-22.7,37.8c-9.8,16-15.7,25.5-17.7,28.5S97.531,135.458,96.6,137.058z"/>
	<path id="letter-m2" class="st0" d="M281.998,137.058c-4.8,1.869-8.535,2.8-11.2,2.8c-8,0-12.469-1.131-13.4-3.4
		c-13.334-34.266-22.134-56.331-26.4-66.2c-0.4,3.6-1.469,11.934-3.2,25c-3.6,25.6-5.4,46.869-5.4,63.8
		c0,4.134,0.266,9.668,0.8,16.6c-9.334,0-15.634-1.1-18.9-3.3c-3.269-2.2-4.9-5.3-4.9-9.3c0-1.332,2.231-19.466,6.7-54.4
		c4.465-34.931,6.7-59.266,6.7-73v-1c-3.869-6.266-7.934-11.4-12.2-15.4c4.931-3.466,10.865-5.2,17.8-5.2c8.8,0,15.6,4.1,20.4,12.3
		c4.8,8.2,14.2,30.7,28.2,67.5l9.2,23.6c0.8-1.331,2-3.131,3.6-5.4c32.531-48.131,49.266-80.8,50.2-98c0,0.134,1.6,0.3,4.8,0.5
		c3.2,0.2,6.631,0.869,10.3,2c3.666,1.134,6.331,2.869,8,5.2c1.666,2.334,2.7,4.6,3.1,6.8c0.4,2.2,0.6,5.935,0.6,11.2
		c0,5.269-2.2,22.969-6.6,53.1c-4.4,30.134-6.6,51.234-6.6,63.3c0,12.068,0.931,20.3,2.8,24.7c-11.334-2.935-19.069-6.831-23.2-11.7
		c-4.134-4.865-6.2-11.631-6.2-20.3c0-5.066,1.366-17.531,4.1-37.4c2.731-19.865,4.631-35.731,5.7-47.6
		c-5.334,9.2-12.9,21.8-22.7,37.8c-9.8,16-15.7,25.5-17.7,28.5S282.929,135.458,281.998,137.058z"/>
	<path class="st0" d="M423.395,23.958c1.065,2.2,1.7,4.234,1.9,6.1c0.2,1.869,0.3,5.269,0.3,10.2c0,4.934-2.2,22.469-6.6,52.6
		c-4.4,30.134-6.6,51.234-6.6,63.3c0,12.068,0.931,20.3,2.8,24.7c-11.334-2.935-19.069-6.831-23.2-11.7
		c-4.135-4.865-6.2-11.631-6.2-20.3c0-5.066,1.4-17.932,4.2-38.6c4.931-34.266,7.4-60.8,7.4-79.6c0-4-0.269-9.466-0.8-16.4
		c10.131,0.534,17.531,2.134,22.2,4.8C420.795,20.127,422.326,21.758,423.395,23.958z"/>
	<path class="st0" d="M565.894,176.358c-4.2,0.731-8.134,1.1-11.8,1.1c-3.669,0-5.5-1-5.5-3c-1.734-7.065-6-32.331-12.8-75.8
		c-18.4,40.935-29.334,66.269-32.8,76c-0.934,0.4-3.534,0.966-7.8,1.7c-4.269,0.731-8.2,1.1-11.8,1.1c-3.6,0-5.4-1-5.4-3
		c-2-8.399-4.8-24.6-8.4-48.6s-7.334-45.8-11.2-65.4c-3.869-19.6-7.869-32.6-12-39c7.332-3.465,13.366-5.2,18.1-5.2
		c4.731,0,8.166,0.869,10.3,2.6c2.131,1.734,4.1,5.5,5.9,11.3c1.8,5.8,3.431,13.869,4.9,24.2c1.466,10.334,2.766,20.068,3.9,29.2
		c1.131,9.134,1.7,13.769,1.7,13.9c0,0.135,0.065,0.769,0.2,1.9c0.131,1.134,1.166,8.4,3.1,21.8c1.931,13.4,3.166,22.034,3.7,25.9
		c10.266-22,20.866-49.2,31.8-81.6c-4.269-22.131-8.6-36.8-13-44c7.332-3.465,13.366-5.2,18.1-5.2c4.731,0,8.166,0.869,10.3,2.6
		c2.131,1.734,4.1,5.5,5.9,11.3c1.8,5.8,3.431,13.869,4.9,24.2c1.465,10.334,2.766,20.068,3.9,29.2c1.131,9.134,1.7,13.769,1.7,13.9
		c0,0.135,0.065,0.769,0.2,1.9c0.131,1.134,1.166,8.4,3.1,21.8c1.931,13.4,3.166,22.034,3.7,25.9
		c9.331-24.266,18.8-50.465,28.4-78.6c9.6-28.131,14.666-46.531,15.2-55.2c14.4,2.934,21.601,7.6,21.601,14
		c0,8.668-13.734,43.134-41.2,103.4c-10.669,23.6-17.069,38.269-19.2,44C572.659,175.059,570.094,175.624,565.894,176.358z"/>
</g>
</svg>
