<?xml version="1.0" encoding="iso-8859-1"?>
<!-- Generator: Adobe Illustrator 16.0.0, SVG Export Plug-In . SVG Version: 6.00 Build 0)  -->
<!DOCTYPE svg PUBLIC "-//W3C//DTD SVG 1.1//EN" "http://www.w3.org/Graphics/SVG/1.1/DTD/svg11.dtd">
<svg version="1.1" id="Layer_1" xmlns="http://www.w3.org/2000/svg" xmlns:xlink="http://www.w3.org/1999/xlink" x="0px" y="0px"
	 width="486.5px" height="163.665px" viewBox="0 0 486.5 163.665" enable-background="new 0 0 486.5 163.665" xml:space="preserve">
<g enable-background="new    ">
	<path fill="#F9F9FA" d="M96.216,95.474h14.663v20.706H96.216v27.994H70.533v-27.994H17.479l-1.155-16.173l53.942-85.224h25.949
		V95.474z M41.918,95.474h28.615V49.796l-1.688,2.933L41.918,95.474z"/>
	<path fill="#F9F9FA" d="M132.385,176.609l-13.419-7.02l3.199-5.777c3.968-7.229,6.012-14.426,6.132-21.594v-19.906h21.684
		l-0.089,17.773c-0.06,6.576-1.719,13.211-4.977,19.906C141.656,166.685,137.479,172.224,132.385,176.609z"/>
	<path fill="#F9F9FA" d="M257.777,144.173h-88.69v-17.596l41.856-44.612c5.746-6.279,9.998-11.76,12.752-16.44
		c2.756-4.68,4.133-9.123,4.133-13.33c0-5.746-1.452-10.265-4.354-13.552c-2.903-3.289-7.051-4.933-12.441-4.933
		c-5.807,0-10.384,1.999-13.73,5.999c-3.348,3.998-5.021,9.257-5.021,15.773H166.51c0-7.879,1.88-15.077,5.643-21.595
		c3.762-6.517,9.078-11.626,15.952-15.329c6.872-3.702,14.663-5.555,23.372-5.555c13.33,0,23.684,3.199,31.059,9.598
		c7.376,6.398,11.064,15.434,11.064,27.104c0,6.398-1.658,12.916-4.977,19.551c-3.318,6.636-9.005,14.368-17.062,23.194
		l-29.415,31.014h55.631V144.173z"/>
	<path fill="#F9F9FA" d="M299.632,68.103h13.686c6.518,0,11.346-1.629,14.486-4.888c3.139-3.258,4.709-7.583,4.709-12.975
		c0-5.213-1.555-9.271-4.664-12.175c-3.111-2.902-7.393-4.354-12.842-4.354c-4.918,0-9.035,1.349-12.354,4.044
		c-3.318,2.696-4.977,6.206-4.977,10.53h-25.682c0-6.754,1.822-12.81,5.465-18.173c3.645-5.361,8.738-9.554,15.285-12.575
		c6.545-3.021,13.76-4.532,21.639-4.532c13.686,0,24.408,3.274,32.17,9.82c7.762,6.547,11.643,15.566,11.643,27.06
		c0,5.925-1.809,11.375-5.422,16.352s-8.354,8.798-14.219,11.464c7.287,2.607,12.723,6.518,16.309,11.73
		c3.582,5.214,5.375,11.375,5.375,18.485c0,11.494-4.191,20.705-12.574,27.637c-8.385,6.932-19.477,10.398-33.281,10.398
		c-12.916,0-23.477-3.406-31.68-10.221c-8.207-6.812-12.309-15.818-12.309-27.016h25.682c0,4.859,1.822,8.828,5.467,11.908
		c3.643,3.082,8.131,4.621,13.463,4.621c6.102,0,10.887-1.613,14.352-4.842c3.467-3.229,5.199-7.51,5.199-12.842
		c0-12.916-7.109-19.374-21.328-19.374h-13.598V68.103z"/>
	<path fill="#F9F9FA" d="M466.615,144.173h-88.689v-17.596l41.855-44.612c5.746-6.279,9.998-11.76,12.752-16.44
		c2.756-4.68,4.133-9.123,4.133-13.33c0-5.746-1.451-10.265-4.354-13.552c-2.904-3.289-7.051-4.933-12.441-4.933
		c-5.807,0-10.385,1.999-13.73,5.999c-3.348,3.998-5.021,9.257-5.021,15.773h-25.771c0-7.879,1.881-15.077,5.643-21.595
		c3.762-6.517,9.08-11.626,15.953-15.329c6.871-3.702,14.662-5.555,23.371-5.555c13.33,0,23.684,3.199,31.059,9.598
		c7.377,6.398,11.064,15.434,11.064,27.104c0,6.398-1.658,12.916-4.977,19.551c-3.318,6.636-9.006,14.368-17.062,23.194
		l-29.414,31.014h55.631V144.173z"/>
</g>
</svg>
