<?xml version="1.0" encoding="iso-8859-1"?>
<!-- Generator: Adobe Illustrator 16.0.0, SVG Export Plug-In . SVG Version: 6.00 Build 0)  -->
<!DOCTYPE svg PUBLIC "-//W3C//DTD SVG 1.1//EN" "http://www.w3.org/Graphics/SVG/1.1/DTD/svg11.dtd">
<svg version="1.1" id="nunavut" xmlns="http://www.w3.org/2000/svg" xmlns:xlink="http://www.w3.org/1999/xlink" x="0px" y="0px"
	 width="505.613px" height="543.573px" viewBox="0 0 505.613 543.573" enable-background="new 0 0 505.613 543.573"
	 xml:space="preserve">
<g id="NU_2_">
	<path id="iq-main_2_" fill="#D0D5D4" d="M183.766,514.068l1.067-80.924l-66.662-18.357v-22.992H84.128l-42.957-59.533
		l14.082-32.793c0,0,7.842,10.514,9.625,11.582c1.781,1.068,14.972,3.566,16.22,3.389c1.249-0.18,4.278,7.84,4.278,10.16
		c0,2.316,2.139,9.445-2.496,9.623c-4.635,0.18-4.635,0.18-4.635,0.18v5.701c0,0,10.337,7.129,18.894,6.24
		c8.556-0.891,14.794-3.744,15.862-4.1c1.07-0.357,3.032-2.141,4.991,0.715c1.959,2.848,4.1,5.701,5.168,6.77
		c1.07,1.068,3.923,4.812,4.1,5.527c0.18,0.711-0.355,2.67-0.714,4.453c-0.355,1.785-0.355,4.102,1.25,4.635
		c1.604,0.535,5.524,3.922,6.238-2.316c0.712-6.238-1.426-6.951-2.317-8.021c-0.892-1.068-0.534-10.338-0.534-10.338l5.525-0.709
		l14.438-11.588c0,0,6.597,11.762,10.874,13.547c4.278,1.781,7.487,1.426,7.487,1.426l6.239,3.029c0,0,8.554,3.025,14.972,1.781
		c6.415-1.246,9.625,0.357,11.406,1.426c1.783,1.068,12.121,1.426,7.132-2.316c-4.99-3.744-7.132-4.455-7.132-5.881
		c0-1.424-0.891-5.883,1.961-5.883c2.854,0,6.061,0,9.092,0.355c3.029,0.355,6.771,1.428,6.95,6.418
		c0.181,4.992,0.356,10.516,2.854,10.516c2.495,0,4.454,1.426,4.454-4.453c0-5.883,0-13.725,0-13.725s9.27-4.279,8.734-10.342
		c-0.535-6.061-5.882-8.379-5.347-11.941c0.535-3.564,2.318-5.348-1.782-6.418c-4.1-1.066-16.219-4.453-16.042-9.441
		c0.179-4.994,1.07-15.867-0.891-21.213c-1.959-5.348,1.604-9.443,2.497-10.693c0.869-1.219,6.493-9.57,13.558-2.342
		c0.175,0.176,0.349,0.361,0.523,0.559c7.309,8.199,8.198,12.299,8.377,13.902s4.1,8.557,5.882,10.158
		c1.782,1.605,2.317,3.209,1.07,5.35c-1.248,2.141-3.211,3.564-1.248,6.062c1.959,2.492,1.959,5.166,4.633,5.166
		c2.673,0,2.673-0.178,3.923-0.891c1.247-0.713,2.136-3.562,2.136,1.248c0,4.812-1.424,7.129,1.43,8.912
		c2.851,1.785,3.207,6.951,5.88,3.744c2.673-3.209,4.991-10.516,8.196-9.092c3.211,1.428,8.914,4.102,8.914,6.061
		c0,0,2.138,5.168,0.712,7.129c-1.424,1.961-6.595,5.705-4.812,7.664c1.783,1.963,9.269,9.094,11.23,9.27
		c1.959,0.178,2.494,5.168,5.7-0.893c3.209-6.059,4.103-7.311,3.923-14.436c-0.179-7.129,0.022-14.617,0.022-14.617
		s2.34-1.246,0-6.592c-2.34-5.352-3.229-5.885-3.229-8.377c0-2.498,2.315-8.381,5.703-8.381c3.387,0,6.416,1.963,8.021,1.963
		c1.604,0,4.454-2.318,11.764,6.771s8.379,8.021,8.379,8.021s-4.813,3.387-5.17,4.1c-0.356,0.711,2.142,3.029,2.316,3.922
		c0.18,0.889,3.563,9.447,5.705,9.803c2.139,0.355,4.992,1.426,4.992,1.426V336.9c0,0-4.281,7.127-4.459,8.553
		c-0.175,1.428-2.675,6.416-4.101,7.488c-1.422,1.068-6.057,3.387-7.485,3.742c-1.427,0.357-4.815,0-8.735-0.893
		c-3.922-0.889-3.74,0.357-5.971,1.07c-2.229,0.715-4.723,1.25-4.366,2.674c0.355,1.426,0.535,3.744,3.209,3.744
		c2.671,0,2.671,0,2.671,0l0.535,11.229c0,0-4.632,7.309-7.309,7.664c-2.673,0.357-15.862,0.711-15.862,0.711
		s-2.139-4.451-3.03-3.027c-0.891,1.424-4.103,2.672-2.854,4.1c1.248,1.426,4.634,2.68,6.417,3.121
		c1.783,0.445,11.94,4.01,16.22,5.611c4.276,1.605,6.062,1.248,5.704,4.457c-0.356,3.207-1.426,5.703-1.339,7.664
		c0.089,1.959,2.769,5.703,0,6.773c-2.763,1.066-14.169,3.027-15.417,4.635c-1.25,1.602-5.703,9.801-5.882,11.049
		s1.959,2.494-4.99,0.891c-6.951-1.605-12.654-2.141-14.437-3.029s-4.1-0.355-4.1-0.355l0.355,5.703c0,0,8.912,3.744,13.368,3.744
		c4.454,0,6.597,3.029,6.774,3.922c0.177,0.891-0.358,7.623-1.248,8.98c-0.892,1.357-2.854,3.496-5.526,4.742
		c-2.673,1.25-5.525,1.783-5.525,3.389c0,1.604-5.168,14.973-8.732,20.498c-3.565,5.523-7.308,13.012-7.129,16.041
		s-0.533,14.613-0.533,14.613l-0.179,2.316c0,0-52.402,13.189-65.771,7.666C183.766,514.068,183.766,514.068,183.766,514.068z"/>
	<path id="iq-is1_2_" fill="#D0D5D4" d="M131.361,300.891l-52.937-9.625c0,0-5.881,2.496-6.772,3.564
		c-0.891,1.072,0.535,3.744,1.782,6.061c1.248,2.316,15.507,16.398,17.29,21.211c1.782,4.812,3.386,8.377,3.386,8.377h26.915
		c0,0,9.919-4.812,12.803-9.092c2.883-4.277,0.745-4.811,3.239-5.168c2.495-0.355,5.882,0.357,5.882,0.357s2.497,2.852,3.742,3.742
		c1.248,0.891,8.734,6.238,11.586,6.238c2.853,0,8.377,4.633,13.903-1.426c5.525-6.062,7.127-6.242,3.029-9.268
		c-4.098-3.031-8.912-3.387-5.704-4.992c3.209-1.605,9.27-1.068,9.804-3.924c0.535-2.85,3.564-5.348,0-9.178
		c-3.564-3.832-5.883-6.148-6.238-9.713c-0.356-3.566-10.338,0-10.338,0s-4.456-16.936-4.456-19.607
		c0-2.674-4.098-12.121-4.098-14.26c0-2.141-0.535-5.705-1.427-9.27c-0.893-3.564,0.712-4.988-1.426-6.059
		c-2.139-1.07-7.844-4.1-8.556-4.277c-0.712-0.18-4.277-2.496-4.277-2.496s-0.535,6.773-0.714,9.805
		c-0.179,3.029-0.712,9.803-0.177,11.227c0.535,1.428,3.744,3.389,3.744,5.707c0,2.316-3.032,4.99-3.744,6.773
		c-0.712,1.781-3.774,35.646-3.774,35.646L131.361,300.891z"/>
	<path id="iq-is2_2_" fill="#D0D5D4" d="M256.311,270.414h9.979v-2.852c0,0-18.18-1.783-18.536-7.129
		c-0.355-5.35-2.139-20.32-1.426-29.232c0.712-8.914,3.565-16.4,4.991-18.896s10.694-9.979,12.477-2.139
		c1.782,7.842,4.988,16.398,2.494,17.822c-2.494,1.428-3.207,6.139-1.067,10.557c2.138,4.418-1.023,11.189,1.983,11.547
		c3.007,0.359,8.71,2.494,8.71,2.494s2.142,6.42,2.495,7.844c0.356,1.426,5.703-3.207,5.347-7.486
		c-0.355-4.277-2.494-3.92-3.921-4.277c-1.426-0.355-6.062-0.357-6.417-4.99c-0.354-4.633-1.781-19.963-1.959-22.812
		c-0.177-2.854,1.248-10.34,2.671-11.766c1.428-1.424,6.064-6.615,11.766-2.416c5.703,4.199,11.765,11.328,12.477,13.469
		c0.712,2.139,0.535,11.764,2.941,11.764s3.83-2.494,5.256-3.922c1.427-1.426,4.994-7.842,6.776-9.623
		c1.782-1.783,4.989-4.992,8.198-4.992c3.207,0,9.982,3.209,11.586,2.498c1.604-0.715,4.812-0.715,6.953,1.424
		c2.138,2.139,4.99,2.854,7.84,2.139c2.853-0.713,13.902,0.355,13.902,0.355s0.357,5.705,2.854,7.131
		c2.495,1.428,5.346,2.496,8.909,1.428c3.566-1.07,14.974-1.783,14.974-1.783v6.773c0,0,4.992-3.922,7.129-3.211
		c2.141,0.713,4.279,2.498,4.279,5.703c0,3.209,0,3.209,0,3.209l7.485,1.428c0,0,2.14,4.988,1.783,8.555
		c-0.357,3.564-2.062,6.418,0.037,8.557c2.102,2.139-1.465,3.207,8.518,2.496c9.98-0.715,20.322-0.357,20.322-0.357
		s2.492-3.209,4.988-0.711c2.494,2.494,6.771,6.059,6.771,6.059s1.072,1.783,8.914,0.713s11.765-3.734,14.972-3.475
		c3.209,0.266,2.498,7.039,2.141,8.109c-0.355,1.068-4.633,1.424-3.207,4.633c1.424,3.209,4.93,4.635,3.535,9.627
		c-1.398,4.988-5.318,6.061-2.109,8.91c3.207,2.852,4.279,11.764,0.713,9.98c-3.563-1.781-5.705-2.793-13.188-4.604
		c-7.486-1.812-18.537-3.236-19.963-3.236c-1.429,0-8.199,1.068-4.99,5.703c3.207,4.635,12.121,14.973,14.615,15.33
		c2.493,0.354,3.922,2.85,10.338,2.85s12.832,0,12.832,0s2.854,5.703,5.705,6.062c2.852,0.355,8.911,3.207,8.911,3.207v6.061
		c0,0,2.498,3.562,4.992,7.842c2.494,4.277,1.422,9.984-3.565,10.34c-4.99,0.355-11.767,4.273-14.974,2.85
		c-3.209-1.426-8.912-4.988-11.049-5.346c-2.141-0.355-8.914-1.783-8.914,0.715c0,2.494,1.428,4.541,3.566,4.943
		c2.139,0.4,12.479,3.609,14.971,3.609c2.496,0,12.123,2.139,14.617,3.564s8.555,3.564,2.494,7.844
		c-6.06,4.277-10.336,1.779-15.328,3.564c-4.99,1.783-7.486,3.207-9.625,3.564c-2.139,0.355-1.783,2.852-5.703,0
		c-3.924-2.854-7.131-2.854-11.051-1.07c-3.922,1.781-7.486,0.715-9.98-1.068c-2.496-1.781-4.635-8.197-4.635-8.197h-16.398
		c0,0-8.196-7.49-12.12-7.846c-3.92-0.354-6.06,0.357-6.06,5.35s-3.924,2.139-3.924,2.139s-0.586,1.07-5.818,5.348
		c-5.229,4.275-8.44,8.914-14.143,4.635c-5.705-4.277-4.578-6.061-5.674-8.912c-1.103-2.85-0.685-5.348,0-8.199
		c0.684-2.852-1.455-4.99,5.315-6.061c6.773-1.066,11.406-2.854,12.832-5.346c1.429-2.496,7.842-4.994,7.842-9.625
		c0-4.635,4.638,1.426,0-4.635c-4.635-6.061-10.213-7.129-6.174-11.406c4.037-4.277,6.174-9.27,2.254-17.822
		c-3.924-8.557-3.563-14.615-13.903-17.471c-10.338-2.852-13.902-7.846-18.181-4.988c-4.278,2.85-9.623,6.414-10.692-1.783
		c-1.07-8.201-3.568-6.775-6.416-8.201c-2.854-1.426-6.418-6.059-8.558-7.484c-2.141-1.426-4.991-3.734-7.487-3.473
		c-2.494,0.264-4.99,3.117-2.14,5.611c2.854,2.496,3.566,3.92-1.067,4.99s-14.262-0.355-16.758,2.139
		c-2.494,2.496-4.988,6.775-10.336,6.418s-7.845,1.428-13.548,2.139c-5.7,0.713-6.416-1.783-9.268-1.424
		c-2.851,0.355-7.483,1.781-10.694,0.711C260.587,281.82,256.223,275.025,256.311,270.414z"/>
	<path id="iq-is3_2_" fill="#D0D5D4" d="M280.551,141.727c0,0-3.564-6.061-3.209-9.98c0.356-3.922,9.626-11.764,11.407-15.33
		c1.782-3.562,4.991-4.633,2.497-10.693c-2.497-6.059-2.319-6.773-6.509-6.416c-4.188,0.357-6.682-3.209-3.832-7.488
		c2.851-4.275,7.129-3.922,8.2-5.346c1.069-1.426-1.07-3.92-0.714-7.842c0.355-3.924-1.07-4.635,1.783-6.062
		c2.854-1.426,7.486-1.781,6.061-7.129s-4.635-15.684-3.923-19.25c0.716-3.564,2.497-9.268,2.497-9.268s-4.279,3.205-6.417,3.562
		c-2.14,0.359-5.105-6.771-1.483-7.484s9.504,0.713,9.594-4.637c0.089-5.346-0.625-20.318-11.316-16.754
		c-10.696,3.566-18.183,9.27-22.102,9.625c-3.923,0.357-11.765,0.715-13.904,2.854s-7.105,9.625-3.019,12.477
		c4.088,2.852,9.079,7.131,8.367,9.625c-0.714,2.496-4.991,0.357-6.773-1.068c-1.781-1.428-7.13-2.139-8.199,0
		c-1.068,2.139-3.921,4.277-7.486,5.705c-3.565,1.424-9.27,3.562-8.2,7.842c1.07,4.275,2.497,9.625,5.706,9.982
		c3.208,0.355,3.208-0.357,7.486-0.357s7.129-0.713,5.347,2.496c-1.783,3.209,2.497,9.268,6.417,2.139
		c3.921-7.129,0-3.922,3.921-7.129c3.923-3.209,10.338-8.199,12.121-4.635s-0.571,9.625-4.741,12.121
		c-4.171,2.496-5.598,6.414-4.171,7.842s1.07,3.207,1.07,3.207h-10.861v8.557c0,0,9.436,6.061,12.286,7.488
		c2.854,1.424,7.13,4.633,4.635,8.555s-7.485,5.348-9.268,7.484c-1.783,2.139-6.061,6.062-4.277,9.271
		c1.782,3.205,3.918,6.059,6.415,5.348c2.495-0.717,9.625-4.992,11.407-1.07s6.061,11.053,2.14,11.764
		c-3.922,0.715-6.059-3.854-11.05-2.816c-4.991,1.033-4.276-0.594-6.773,2.895c-2.495,3.488-4.61,4.199-5.515,6.695
		c-0.902,2.496-3.375,11.408,0,11.764c3.376,0.357,5.158,4.635,16.209-2.139c11.051-6.771,10.696-4.633,14.974-3.562
		c4.276,1.066,6.771,5.348,11.049,0.711c4.279-4.633,10.173-7.842,8.119-9.98C294.452,143.155,284.473,142.442,280.551,141.727z"/>
	<path id="iq-is4_2_" fill="#D0D5D4" d="M246.162,175.323c0,0-24.164-17.914-26.303-17.914c-2.14,0-7.754,2.141-7.754,2.141
		l6.417,10.695c0,0,10.694,6.951,14.17,9.355c3.475,2.406,8.823,10.427,4.545,9.623c-4.277-0.801-7.219-3.74-9.357-3.74
		s-4.011-2.554-6.416-1.143c-2.406,1.408-4.278,4.35-3.476,7.826c0.802,3.475,2.409,10.691,5.75,10.691s1.469-3.207,6.547-4.277
		c5.081-1.066,8.29-0.531,13.368,0.27c5.081,0.805,27.004,5.348,38.768-3.475c11.766-8.824,21.48-11.23,18.896-16.845
		c-2.586-5.613-5.795-11.318-10.341-11.273c-4.543,0.045-11.496-0.756-14.437,2.719c-2.941,3.479-8.021,7.486-9.893,8.557
		c-1.872,1.068,2.939,4.545-7.754,1.604C248.199,177.194,246.162,175.323,246.162,175.323z"/>
	<path id="iq-is5_2_" fill="#D0D5D4" d="M226.277,128.801c0,0,7.217,8.287,13.1-2.141c5.88-10.426,9.291-10.961,6.786-20.584
		c-2.509-9.627-7.457-13.637-9.527-17.914c-2.069-4.279-4.743-12.301-9.022-12.834c-4.277-0.535-7.754-1.605-9.358-1.605
		s-6.148,0-6.148,0s-1.337,4.279,0,6.688c1.337,2.404,6.148,3.207,2.939,4.811s-8.554,1.275-8.554,1.275l1.604,4.605
		c0,0,5.88,0.805,6.684,2.408c0.802,1.604,1.336,3.207,1.336,3.207l-6.417,0.268l2.407,5.84c0,0,7.49-0.225,11.632,1.646
		c4.143,1.871,6.814,5.08,6.814,5.08s1.871,0.803-2.405,2.141c-4.279,1.336-6.417,2.139-6.417,5.881
		S226.277,128.801,226.277,128.801z"/>
	<path id="iq-is6_2_" fill="#D0D5D4" d="M198.47,127.198c-0.893-3.359-2.673-8.021-4.01-10.16c-1.339-2.139-2.941-8.555-8.556-8.555
		s-5.614,0-7.219,0s-6.416,0.266-4.811,3.742c1.604,3.477,5.736,2.141,7.145,4.545c1.41,2.406,8.039,5.883,4.99,6.951
		c-3.046,1.07-2.924-0.535-4.99,1.336c-2.065,1.873-7.682,3.572-3.668,6.867c4.01,3.293,15.772,8.641,16.843,8.641
		c1.068,0,2.939-2.674,5.614-3.477c2.674-0.801,5.347-1.174,6.684,1.822c1.337,2.99,4.545,4.596,5.614,2.723
		c1.069-1.871,4.278-4.01,4.278-7.486c0-3.475,3.208-4.543,0-6.684c-3.209-2.139-3.476-3.744-8.021-3.744
		c-4.546,0-4.011,3.479-5.347,4.814C201.68,129.872,199.93,132.676,198.47,127.198z"/>
	<path id="iq-is7_2_" fill="#D0D5D4" d="M142.86,182.542v15.773c0,0,15.238-2.404,20.587-7.887
		c5.347-5.479,6.149-3.877,6.416-10.292c0.269-6.416-0.267-8.916-3.742-12.879c-3.475-3.965-6.951-9.311-11.765-9.848
		c-4.812-0.533-8.288-1.932-6.417,4.516c1.872,6.447,2.407,12.061,1.872,14.199C149.277,178.262,150.345,183.612,142.86,182.542z"/>
	<path id="iq-is8_2_" fill="#D0D5D4" d="M148.474,133.614c0,0,0,4.174-1.872,5.297c-1.87,1.119-6.147-1.02-4.543,3.525
		c1.604,4.543-0.085,7.221,3.031,6.953c3.117-0.268,4.188-0.805,6.058-2.141c1.872-1.336,6.951-5.717,6.951-8.338
		c0-2.623,1.933-4.494-1.707-5.299C152.752,132.811,150.345,133.614,148.474,133.614z"/>
	<path id="iq-is9_2_" fill="#D0D5D4" d="M154.356,120.247c-1.913-0.959-3.742-1.07-6.149,0c-2.405,1.068-5.614,2.406-2.405,5.213
		c3.21,2.809,3.742,3.879,5.881,3.879s8.29-2.408,8.29-2.408S158.098,122.118,154.356,120.247z"/>
	<path id="iq-is10_2_" fill="#D0D5D4" d="M195.682,161.924c0,0-0.385,4.576,0,7.248c0.383,2.676,2.254,4.812,1.987,5.617
		c-0.267,0.803-1.604,3.742-4.276,0c-2.671-3.744-7.396-0.24-6.238,2.82c1.158,3.059,3.054,15.359,5.182,15.626
		c2.126,0.268,0.039,4.811,5.36,5.08c5.321,0.266,5.054-1.068,8.798-4.277c3.742-3.209,6.147-7.486,5.614-11.23
		c-0.535-3.742-0.804-7.486-1.872-9.891c-1.068-2.408-3.209,0.268-5.614-3.211c-2.407-3.475-1.604-4.848-3.742-6.031
		C198.737,162.489,197.701,160.557,195.682,161.924z"/>
	<path id="iq-is11_2_" fill="#D0D5D4" d="M209.165,210.078c0,0-1.604,26.471,0,30.746c1.605,4.279,5.614,11.764,5.614,13.369
		c0,1.604,3.03,0,3.03,0s3.388,0,2.851-4.545c-0.533-4.543-2.761-4.277-2.851-6.15c-0.088-1.871,4.19-1.871,5.929-1.871
		c1.736,0,6.813-3.475,7.618-8.02c0.802-4.545,9.355-14.973,4.812-18.717c-4.545-3.742-7.219-6.684-10.961-6.416
		C221.463,208.742,211.304,210.078,209.165,210.078z"/>
	<path id="iq-is12_2_" fill="#D0D5D4" d="M201.411,222.174c0,0-4.011,7.066-4.011,9.918s-4.779,4.189-1.721,7.129
		c3.058,2.941,8.939,4.012,9.206,6.15c0.268,2.141,1.605,15.773,0,18.447c-1.604,2.674,0.533,9.893-6.416,10.16
		c-6.95,0.268-10.427,1.869-12.831-2.674c-2.407-4.545-1.483-8.557-4.619-12.031c-3.137-3.477-4.852-2.852-7.471-4.367
		c-2.618-1.514-0.895-2.582-3.628-4.188c-2.731-1.605,0-10.428,0-10.428l6.091,0.268v4.275h5.007c0,0,0.605-5.346-1.532-9.891
		c-2.139-4.545-5.079-8.555-2.139-10.428c2.939-1.871,4.276-4.412,6.146-2.34c1.874,2.072,4.013,0.066,6.953,0
		C193.391,222.109,198.737,216.629,201.411,222.174z"/>
	<path id="iq-is13_2_" fill="#D0D5D4" d="M217.81,142.436l-3.03,2.941l1.516,2.939h6.679h5.174c0,0,1.202-1.871-1.404-2.939
		C224.136,144.309,221.908,142.436,217.81,142.436z"/>
	<path id="iq-is14_2_" fill="#D0D5D4" d="M150.156,222.174c0,0-1.414,2.344-2.484,4.215c-1.069,1.869-4.01,4.439-2.141,5.293
		c1.872,0.855,3.732,1.123,6.68,3.262c2.946,2.141,1.876,1.338,2.946,0c1.068-1.334,0.267-3.156,0-5.723
		C154.892,226.652,150.156,222.174,150.156,222.174z"/>
	<path id="iq-is15_2_" fill="#D0D5D4" d="M301.737,196.977c0,0-4.611,2.941-6.214,3.207c-1.605,0.268-4.814,4.162-2.671,4.889
		c2.136,0.727,5.613,6.879,6.146,7.678c0.537,0.803,2.673,2.141,5.882,0c3.211-2.137,6.151-4.275,9.094-6.146
		c2.94-1.871,5.614-3.744,2.94-5.348c-2.674-1.605-1.07-4.01-3.477-4.277C311.03,196.711,301.737,196.977,301.737,196.977z"/>
	<path id="iq-is16_2_" fill="#D0D5D4" d="M362.099,295.902c-1.339,0.533-4.548,2.377-5.349,3.059
		c-0.805,0.686-6.149-0.922-4.014,6.031c2.139,6.951,2.408,9.625,2.408,12.031s0.801,2.406,5.614,1.871
		c4.812-0.535,7.752-1.336,8.822-3.742c1.07-2.408,6.687-1.314,2.674-7.611C368.247,301.25,362.099,295.902,362.099,295.902z"/>
	<path id="iq-is17_2_" fill="#D0D5D4" d="M317.448,379.777c-1.605-0.729-2.943-2.33-5.348-2.598c-2.408-0.27-5.616-4.279-5.349,0
		c0.268,4.273,1.068,13.367,1.068,16.039c0,2.678,2.404,3.744,2.404,9.092c0,5.35-4.574,10.695-3.491,12.031
		c1.087,1.336-0.165,8.559-0.165,8.559s-0.803-0.803,5.438-4.012s5.44-5.615,7.847-2.408c2.405,3.209,1.604,4.812,5.612,3.744
		c4.013-1.07,5.617,5.078,6.15-4.545c0.535-9.627-0.27-9.355,4.01-10.43c4.277-1.066,1.338-0.531,6.148,0.535
		c4.812,1.07,6.149,1.875,11.766,1.875c5.613,0,2.938,2.938,5.613,0c2.674-2.941,1.604-0.537,2.674-5.617
		c1.068-5.08,3.209-2.676,1.068-5.08c-2.14-2.406-4.277-1.338-9.355-2.406c-5.08-1.068-4.012-3.471-8.555-6.412
		c-4.547-2.943-3.478-4.018-8.289-3.746c-4.812,0.266-4.012,2.672-6.951-2.406c-2.94-5.082-3.477-7.754-6.416-5.082
		C320.388,379.586,317.448,379.777,317.448,379.777z"/>
	<path id="iq-is19_2_" fill="#D0D5D4" d="M347.394,420.76c0,0-0.806,1.336-1.338,3.74c-0.535,2.408-1.604,3.479-2.404,4.812
		c-0.805,1.336,0.801,5.35,0,8.557c-0.805,3.209,0,1.871,3.742,0c3.739-1.871,2.938-7.486,4.272-9.355
		c1.34-1.873,3.746-5.883,1.34-5.613C350.601,423.164,347.394,420.76,347.394,420.76z"/>
	<path id="iq-is20_2_" fill="#D0D5D4" d="M378.675,425.838c-0.536,0.27-2.809,0.535-2.809,2.543c0,2.004,1.07,6.949,1.402,7.352
		c0.334,0.4,4.614,8.422,4.614,8.422s2.005-7.619,1.604-10.16c-0.4-2.539-2.141-5.213-2.541-6.416
		C380.544,426.373,378.675,425.838,378.675,425.838z"/>
	<path id="iq-is21_2_" fill="#D0D5D4" d="M380.411,397.365c-0.955-0.189-3.342,2.004-2.272,3.742c1.069,1.74,1.87,4.68,3.206,4.814
		c1.339,0.131,2.81,3.875,4.681,0c1.871-3.879,4.01-2.943,1.205-4.814C384.421,399.236,381.749,397.631,380.411,397.365z"/>
	<path id="iq-is22_2_" fill="#D0D5D4" d="M388.03,389.477c0,0,0.27,1.471,0,2.941c-0.266,1.469-0.898,3.875,0.551,4.145
		c1.453,0.268,2.123-0.27,3.326-0.938c1.201-0.668,1.738-3.52,0.535-4.365C391.239,390.412,388.03,389.477,388.03,389.477z"/>
</g>
<g id="Rankin">
	<circle fill="#8E191B" cx="298.125" cy="360.125" r="7.375"/>
</g>
</svg>
