<?xml version="1.0" encoding="utf-8"?>
<!-- Generator: Adobe Illustrator 16.0.0, SVG Export Plug-In . SVG Version: 6.00 Build 0)  -->
<!DOCTYPE svg PUBLIC "-//W3C//DTD SVG 1.1//EN" "http://www.w3.org/Graphics/SVG/1.1/DTD/svg11.dtd">
<svg version="1.1" id="phone" class="data-res" xmlns="http://www.w3.org/2000/svg" xmlns:xlink="http://www.w3.org/1999/xlink" x="0px" y="0px"
	 width="150.164px" height="148.664px" viewBox="0 0 150.164 148.664" enable-background="new 0 0 150.164 148.664"
	 xml:space="preserve">
<g id="phoneCir">
	<circle id="p-circ" fill="#8F0000" cx="74.379" cy="72.464" r="70.151"/>
	<g id="group">
		<path id="phone_2_" fill="#FFFFFF" d="M97.566,82.165c-1.662-1.729-3.668-2.656-5.793-2.656c-2.107,0-4.129,0.908-5.86,2.64
			l-5.415,5.397c-0.445-0.239-0.891-0.462-1.318-0.685c-0.619-0.309-1.201-0.6-1.697-0.908c-5.072-3.223-9.683-7.42-14.104-12.854
			c-2.142-2.707-3.581-4.986-4.627-7.299c1.406-1.286,2.708-2.622,3.976-3.908c0.48-0.48,0.96-0.977,1.44-1.457
			c3.599-3.598,3.599-8.259,0-11.859l-4.679-4.678c-0.531-0.532-1.079-1.08-1.593-1.629c-1.028-1.062-2.107-2.158-3.222-3.187
			c-1.663-1.646-3.65-2.52-5.741-2.52c-2.09,0-4.113,0.874-5.827,2.52c-0.017,0.018-0.017,0.018-0.033,0.034l-5.827,5.877
			c-2.194,2.195-3.445,4.868-3.719,7.969c-0.411,5.004,1.062,9.666,2.194,12.716c2.776,7.488,6.923,14.429,13.109,21.867
			c7.506,8.962,16.537,16.04,26.854,21.027c3.94,1.867,9.202,4.078,15.08,4.455c0.359,0.018,0.737,0.033,1.08,0.033
			c3.958,0,7.283-1.422,9.889-4.25c0.017-0.033,0.05-0.052,0.067-0.086c0.892-1.08,1.919-2.056,2.999-3.102
			c0.737-0.702,1.491-1.439,2.229-2.211c1.697-1.764,2.588-3.82,2.588-5.928c0-2.125-0.908-4.166-2.641-5.877L97.566,82.165z
			 M103.701,100.209C103.684,100.209,103.684,100.227,103.701,100.209c-0.668,0.721-1.354,1.371-2.092,2.09
			c-1.113,1.062-2.244,2.178-3.307,3.428c-1.73,1.851-3.771,2.726-6.443,2.726c-0.256,0-0.53,0-0.787-0.019
			c-5.09-0.326-9.82-2.312-13.367-4.01c-9.699-4.695-18.217-11.361-25.294-19.811c-5.844-7.043-9.751-13.555-12.339-20.547
			c-1.594-4.267-2.177-7.592-1.919-10.728c0.171-2.005,0.942-3.667,2.365-5.089l5.843-5.844c0.839-0.788,1.731-1.216,2.605-1.216
			c1.079,0,1.954,0.651,2.501,1.199c0.018,0.018,0.034,0.034,0.052,0.052c1.045,0.977,2.04,1.987,3.084,3.067
			c0.531,0.548,1.079,1.097,1.628,1.663l4.679,4.678c1.816,1.816,1.816,3.496,0,5.313c-0.497,0.497-0.976,0.993-1.474,1.473
			c-1.439,1.474-2.81,2.845-4.301,4.181c-0.034,0.034-0.068,0.051-0.086,0.086c-1.473,1.475-1.199,2.914-0.891,3.89
			c0.017,0.052,0.034,0.104,0.051,0.154c1.216,2.948,2.931,5.724,5.535,9.032l0.018,0.017c4.729,5.827,9.716,10.368,15.217,13.847
			c0.703,0.446,1.421,0.807,2.107,1.148c0.618,0.309,1.2,0.6,1.697,0.908c0.068,0.033,0.137,0.086,0.205,0.119
			c0.582,0.293,1.132,0.428,1.697,0.428c1.422,0,2.312-0.892,2.604-1.182l5.86-5.861c0.582-0.582,1.508-1.284,2.588-1.284
			c1.062,0,1.936,0.667,2.468,1.251c0.019,0.018,0.019,0.018,0.034,0.033l9.441,9.441
			C105.449,96.594,105.449,98.393,103.701,100.209z"/>
		<path id="line-sm" fill="#FFFFFF" d="M77.275,51.181c4.49,0.754,8.569,2.879,11.824,6.135c3.256,3.256,5.364,7.334,6.135,11.824
			c0.188,1.132,1.166,1.92,2.279,1.92c0.137,0,0.258-0.018,0.395-0.034c1.268-0.207,2.107-1.406,1.902-2.674
			c-0.926-5.433-3.496-10.385-7.42-14.309c-3.925-3.925-8.877-6.495-14.311-7.42c-1.268-0.207-2.451,0.634-2.673,1.885
			C75.185,49.758,76.008,50.975,77.275,51.181z"/>
		<path id="line-big" fill="#FFFFFF" d="M114.497,67.684c-1.524-8.946-5.739-17.085-12.218-23.564
			c-6.479-6.478-14.618-10.693-23.563-12.219c-1.251-0.223-2.434,0.635-2.655,1.885c-0.207,1.269,0.633,2.451,1.901,2.674
			c7.986,1.354,15.269,5.14,21.062,10.916c5.793,5.793,9.562,13.076,10.916,21.062c0.188,1.131,1.166,1.919,2.278,1.919
			c0.138,0,0.257-0.017,0.396-0.033C113.863,70.134,114.72,68.935,114.497,67.684z"/>
	</g>
</g>
</svg>
