<?xml version="1.0" encoding="utf-8"?>
<!-- Generator: Adobe Illustrator 16.0.0, SVG Export Plug-In . SVG Version: 6.00 Build 0)  -->
<!DOCTYPE svg PUBLIC "-//W3C//DTD SVG 1.1//EN" "http://www.w3.org/Graphics/SVG/1.1/DTD/svg11.dtd">
<svg version="1.1" id="Layer_1" xmlns="http://www.w3.org/2000/svg" xmlns:xlink="http://www.w3.org/1999/xlink" x="0px" y="0px"
	 width="154.164px" height="151.664px" viewBox="0 0 154.164 151.664" enable-background="new 0 0 154.164 151.664"
	 xml:space="preserve">
<g id="turtle">
	<circle fill="#8F0000" cx="77.337" cy="74.473" r="70.151"/>
	<g>
		<g>
			<path fill="#FFFFFF" d="M78.65,50.181c-19.854,0-36.004,16.152-36.004,36.004c0,19.854,16.151,36.006,36.004,36.006
				c19.854,0,36.005-16.152,36.005-36.006C114.656,66.333,98.504,50.181,78.65,50.181z M78.65,53.032
				c4.277,0,8.369,0.813,12.125,2.296l-4.441,7.692H70.966l-4.441-7.692C70.282,53.845,74.374,53.032,78.65,53.032z M57.998,60.27
				l4.432,7.679l-7.684,13.309h-8.883C47.128,72.8,51.601,65.378,57.998,60.27z M45.863,91.115h8.883l7.684,13.309l-4.432,7.68
				C51.601,106.994,47.128,99.572,45.863,91.115z M99.305,112.102l-4.433-7.679l7.685-13.309h8.883
				C110.173,99.572,105.702,106.994,99.305,112.102z M101.734,88.264c-0.51,0-0.979,0.271-1.234,0.713l-8.508,14.734
				c-0.256,0.439-0.256,0.982,0,1.426l4.998,8.655c-1.151,0.767-2.352,1.463-3.598,2.084l-5.002-8.662
				c-0.254-0.44-0.725-0.712-1.232-0.712h-9.836c-0.787,0-1.426,0.637-1.426,1.425c0,0.787,0.639,1.425,1.426,1.425h9.013
				l4.442,7.693c-3.758,1.48-7.85,2.296-12.125,2.296c-4.278,0.001-8.369-0.813-12.126-2.296l4.442-7.693h1.605
				c0.788,0,1.426-0.637,1.426-1.425c0-0.786-0.638-1.425-1.426-1.425h-2.428c-0.509,0-0.979,0.271-1.234,0.713l-5.001,8.661
				c-1.245-0.621-2.445-1.315-3.596-2.083l4.997-8.656c0.254-0.441,0.254-0.984,0-1.426l-8.506-14.732
				c-0.254-0.441-0.725-0.715-1.233-0.715h-10.01c-0.043-0.687-0.067-1.379-0.067-2.076c0-0.699,0.025-1.393,0.067-2.08h10.006
				c0.509,0,0.979-0.271,1.233-0.713l8.506-14.733c0.255-0.44,0.255-0.983,0-1.425l-4.997-8.657
				c1.151-0.767,2.351-1.463,3.596-2.084l5.001,8.662c0.254,0.442,0.724,0.713,1.233,0.713h17.014c0.509,0,0.979-0.271,1.234-0.713
				l5-8.662c1.246,0.622,2.447,1.318,3.598,2.085l-4.998,8.656c-0.254,0.441-0.254,0.984,0,1.425l2.514,4.354
				c0.266,0.458,0.744,0.713,1.236,0.713c0.24,0,0.486-0.062,0.711-0.191c0.682-0.393,0.916-1.265,0.521-1.945l-2.103-3.643
				l4.433-7.678c6.397,5.108,10.869,12.53,12.135,20.987h-8.881l-2.922-5.059c-0.394-0.682-1.266-0.915-1.947-0.521
				c-0.681,0.394-0.914,1.266-0.521,1.946l3.332,5.771c0.255,0.44,0.726,0.713,1.233,0.713h10.004
				c0.043,0.688,0.067,1.381,0.067,2.078c0,0.698-0.024,1.393-0.067,2.078H101.734L101.734,88.264z"/>
		</g>
	</g>
	<g>
		<g>
			<path fill="#FFFFFF" d="M55.057,114.938c-0.52-0.592-1.42-0.648-2.012-0.129l-2.394,2.107c-1.152,1.014-2.913,0.9-3.927-0.249
				l-7.497-8.515c-1.015-1.152-0.902-2.912,0.249-3.928l3.942-3.473c0.59-0.52,0.648-1.421,0.128-2.012
				c-0.521-0.59-1.42-0.647-2.011-0.126l-3.942,3.471c-2.331,2.054-2.557,5.619-0.504,7.95l7.497,8.514
				c1.112,1.264,2.667,1.907,4.231,1.907c1.322,0,2.65-0.462,3.719-1.401l2.394-2.106C55.519,116.428,55.576,115.527,55.057,114.938
				z"/>
		</g>
	</g>
	<g>
		<g>
			<path fill="#FFFFFF" d="M119.709,102.086l-3.941-3.472c-0.592-0.521-1.492-0.466-2.012,0.126
				c-0.521,0.591-0.463,1.492,0.127,2.012l3.943,3.473c1.152,1.015,1.264,2.775,0.25,3.928l-7.496,8.515
				c-1.014,1.151-2.775,1.265-3.928,0.249l-2.395-2.105c-0.591-0.521-1.49-0.465-2.011,0.127s-0.463,1.492,0.128,2.012l2.395,2.107
				c1.067,0.939,2.396,1.4,3.717,1.4c1.563,0,3.121-0.646,4.231-1.907l7.497-8.514C122.268,107.705,122.04,104.139,119.709,102.086z
				"/>
		</g>
	</g>
	<g>
		<g>
			<path fill="#FFFFFF" d="M120.214,58.46l-7.496-8.515c-0.995-1.13-2.368-1.804-3.87-1.9c-1.504-0.095-2.951,0.399-4.08,1.395
				l-4.742,4.174c-0.59,0.521-0.647,1.421-0.129,2.012c0.521,0.591,1.422,0.648,2.013,0.129l4.741-4.175
				c0.558-0.492,1.273-0.735,2.017-0.689c0.741,0.048,1.42,0.381,1.912,0.938l7.495,8.515c1.015,1.151,0.9,2.913-0.249,3.928
				l-5.13,4.517c-0.592,0.52-0.648,1.421-0.129,2.011c0.283,0.321,0.676,0.483,1.07,0.483c0.336,0,0.67-0.117,0.941-0.354
				l5.13-4.519C122.04,64.357,122.268,60.791,120.214,58.46z"/>
		</g>
	</g>
	<g>
		<g>
			<path fill="#FFFFFF" d="M57.276,53.616l-4.743-4.175c-1.129-0.995-2.576-1.488-4.08-1.395c-1.501,0.097-2.876,0.771-3.87,1.899
				l-7.497,8.516c-2.052,2.331-1.825,5.897,0.505,7.949l5.129,4.518c0.271,0.237,0.606,0.354,0.941,0.354
				c0.395,0,0.789-0.163,1.07-0.483c0.52-0.591,0.463-1.491-0.128-2.012l-5.13-4.517c-1.151-1.014-1.263-2.775-0.249-3.928
				l7.497-8.514c0.491-0.559,1.171-0.892,1.912-0.939c0.739-0.047,1.458,0.197,2.016,0.689l4.742,4.175
				c0.59,0.52,1.491,0.462,2.011-0.128C57.924,55.037,57.867,54.135,57.276,53.616z"/>
		</g>
	</g>
	<g>
		<g>
			<path fill="#FFFFFF" d="M96.898,85.473l-8.506-14.733c-0.254-0.44-0.726-0.713-1.233-0.713H70.144
				c-0.509,0-0.979,0.272-1.233,0.713l-8.508,14.733c-0.254,0.441-0.254,0.984,0,1.426l8.508,14.734
				c0.254,0.44,0.725,0.713,1.233,0.713h17.015c0.509,0,0.979-0.271,1.233-0.713l8.506-14.734
				C97.154,86.458,97.154,85.915,96.898,85.473z M86.335,99.496H70.966l-7.684-13.311l7.684-13.31h15.369l7.687,13.31L86.335,99.496
				z"/>
		</g>
	</g>
	<g>
		<g>
			<path fill="#FFFFFF" d="M95.8,39.654l-6.075-10.526c-1.078-1.86-3.08-3.016-5.229-3.016h-11.69c-2.149,0-4.152,1.156-5.228,3.019
				l-6.074,10.524c-0.916,1.586-1.064,3.475-0.408,5.18l2.225,5.797c0.282,0.734,1.106,1.103,1.841,0.819
				c0.735-0.282,1.102-1.105,0.819-1.841l-2.225-5.798c-0.346-0.9-0.267-1.896,0.217-2.733l6.073-10.523
				c0.568-0.982,1.626-1.594,2.76-1.594h11.69c1.133,0,2.191,0.61,2.76,1.591l6.076,10.525c0.482,0.838,0.562,1.834,0.215,2.735
				l-2.224,5.798c-0.283,0.734,0.085,1.558,0.819,1.84c0.166,0.065,0.34,0.096,0.51,0.096c0.572,0,1.113-0.348,1.332-0.915
				l2.223-5.796C96.863,43.128,96.715,41.24,95.8,39.654z"/>
		</g>
	</g>
	<g>
		<g>
			<path fill="#FFFFFF" d="M70.634,36.232c-0.787,0-1.425,0.639-1.425,1.426v3.105c0,0.787,0.638,1.426,1.425,1.426
				c0.787,0,1.425-0.639,1.425-1.426v-3.105C72.059,36.871,71.421,36.232,70.634,36.232z"/>
		</g>
	</g>
	<g>
		<g>
			<path fill="#FFFFFF" d="M86.669,36.232c-0.787,0-1.425,0.639-1.425,1.426v3.105c0,0.787,0.638,1.426,1.425,1.426
				c0.788,0,1.426-0.639,1.426-1.426v-3.105C88.094,36.871,87.456,36.232,86.669,36.232z"/>
		</g>
	</g>
</g>
</svg>
